<mxfile host="app.diagrams.net" agent="Mozilla/5.0 (Windows NT 10.0; Win64; x64) AppleWebKit/537.36 (KHTML, like Gecko) Chrome/135.0.0.0 Safari/537.36 Edg/135.0.0.0" version="26.2.13">
  <diagram name="Trang-1" id="kpc_CZlJE6okW1YhQXeX">
    <mxGraphModel dx="9109" dy="2848" grid="1" gridSize="10" guides="1" tooltips="1" connect="1" arrows="1" fold="1" page="1" pageScale="1" pageWidth="827" pageHeight="1169" math="0" shadow="0">
      <root>
        <mxCell id="0" />
        <mxCell id="1" parent="0" />
        <mxCell id="e8_UmXs5ctp9pTQ8ATcP-36" style="edgeStyle=orthogonalEdgeStyle;rounded=0;orthogonalLoop=1;jettySize=auto;html=1;entryX=0;entryY=0.5;entryDx=0;entryDy=0;" parent="1" source="e8_UmXs5ctp9pTQ8ATcP-1" target="e8_UmXs5ctp9pTQ8ATcP-14" edge="1">
          <mxGeometry relative="1" as="geometry">
            <Array as="points">
              <mxPoint x="-200" y="675" />
              <mxPoint x="-200" y="375" />
            </Array>
          </mxGeometry>
        </mxCell>
        <mxCell id="e8_UmXs5ctp9pTQ8ATcP-38" style="edgeStyle=orthogonalEdgeStyle;rounded=0;orthogonalLoop=1;jettySize=auto;html=1;entryX=0;entryY=0.5;entryDx=0;entryDy=0;" parent="1" source="e8_UmXs5ctp9pTQ8ATcP-1" target="e8_UmXs5ctp9pTQ8ATcP-13" edge="1">
          <mxGeometry relative="1" as="geometry">
            <Array as="points">
              <mxPoint x="-200" y="675" />
              <mxPoint x="-200" y="495" />
            </Array>
          </mxGeometry>
        </mxCell>
        <mxCell id="e8_UmXs5ctp9pTQ8ATcP-39" style="edgeStyle=orthogonalEdgeStyle;rounded=0;orthogonalLoop=1;jettySize=auto;html=1;" parent="1" source="e8_UmXs5ctp9pTQ8ATcP-1" target="e8_UmXs5ctp9pTQ8ATcP-10" edge="1">
          <mxGeometry relative="1" as="geometry" />
        </mxCell>
        <mxCell id="e8_UmXs5ctp9pTQ8ATcP-40" style="edgeStyle=orthogonalEdgeStyle;rounded=0;orthogonalLoop=1;jettySize=auto;html=1;entryX=0;entryY=0.5;entryDx=0;entryDy=0;" parent="1" source="e8_UmXs5ctp9pTQ8ATcP-1" target="e8_UmXs5ctp9pTQ8ATcP-8" edge="1">
          <mxGeometry relative="1" as="geometry" />
        </mxCell>
        <mxCell id="e8_UmXs5ctp9pTQ8ATcP-41" style="edgeStyle=orthogonalEdgeStyle;rounded=0;orthogonalLoop=1;jettySize=auto;html=1;entryX=0;entryY=0.5;entryDx=0;entryDy=0;" parent="1" source="e8_UmXs5ctp9pTQ8ATcP-1" target="e8_UmXs5ctp9pTQ8ATcP-11" edge="1">
          <mxGeometry relative="1" as="geometry" />
        </mxCell>
        <mxCell id="e8_UmXs5ctp9pTQ8ATcP-42" style="edgeStyle=orthogonalEdgeStyle;rounded=0;orthogonalLoop=1;jettySize=auto;html=1;entryX=0;entryY=0.5;entryDx=0;entryDy=0;" parent="1" source="e8_UmXs5ctp9pTQ8ATcP-1" target="e8_UmXs5ctp9pTQ8ATcP-17" edge="1">
          <mxGeometry relative="1" as="geometry">
            <Array as="points">
              <mxPoint x="-200" y="675" />
              <mxPoint x="-200" y="945" />
            </Array>
          </mxGeometry>
        </mxCell>
        <mxCell id="e8_UmXs5ctp9pTQ8ATcP-1" value="Admin" style="shape=umlActor;verticalLabelPosition=bottom;verticalAlign=top;html=1;outlineConnect=0;" parent="1" vertex="1">
          <mxGeometry x="-320" y="645" width="30" height="60" as="geometry" />
        </mxCell>
        <mxCell id="e8_UmXs5ctp9pTQ8ATcP-33" style="edgeStyle=orthogonalEdgeStyle;rounded=0;orthogonalLoop=1;jettySize=auto;html=1;" parent="1" source="e8_UmXs5ctp9pTQ8ATcP-5" target="e8_UmXs5ctp9pTQ8ATcP-19" edge="1">
          <mxGeometry relative="1" as="geometry">
            <Array as="points">
              <mxPoint x="660" y="1130" />
            </Array>
          </mxGeometry>
        </mxCell>
        <mxCell id="e8_UmXs5ctp9pTQ8ATcP-34" style="edgeStyle=orthogonalEdgeStyle;rounded=0;orthogonalLoop=1;jettySize=auto;html=1;" parent="1" source="e8_UmXs5ctp9pTQ8ATcP-5" target="e8_UmXs5ctp9pTQ8ATcP-16" edge="1">
          <mxGeometry relative="1" as="geometry" />
        </mxCell>
        <mxCell id="e8_UmXs5ctp9pTQ8ATcP-35" style="edgeStyle=orthogonalEdgeStyle;rounded=0;orthogonalLoop=1;jettySize=auto;html=1;" parent="1" source="e8_UmXs5ctp9pTQ8ATcP-5" target="e8_UmXs5ctp9pTQ8ATcP-22" edge="1">
          <mxGeometry relative="1" as="geometry">
            <Array as="points">
              <mxPoint x="520" y="1130" />
              <mxPoint x="520" y="1075" />
            </Array>
          </mxGeometry>
        </mxCell>
        <mxCell id="e8_UmXs5ctp9pTQ8ATcP-5" value="Giảng viên" style="shape=umlActor;verticalLabelPosition=bottom;verticalAlign=top;html=1;outlineConnect=0;" parent="1" vertex="1">
          <mxGeometry x="625" y="1100" width="30" height="60" as="geometry" />
        </mxCell>
        <mxCell id="e8_UmXs5ctp9pTQ8ATcP-28" style="edgeStyle=orthogonalEdgeStyle;rounded=0;orthogonalLoop=1;jettySize=auto;html=1;" parent="1" source="e8_UmXs5ctp9pTQ8ATcP-6" target="e8_UmXs5ctp9pTQ8ATcP-15" edge="1">
          <mxGeometry relative="1" as="geometry" />
        </mxCell>
        <mxCell id="e8_UmXs5ctp9pTQ8ATcP-29" style="edgeStyle=orthogonalEdgeStyle;rounded=0;orthogonalLoop=1;jettySize=auto;html=1;entryX=1;entryY=0.5;entryDx=0;entryDy=0;" parent="1" source="e8_UmXs5ctp9pTQ8ATcP-6" target="e8_UmXs5ctp9pTQ8ATcP-20" edge="1">
          <mxGeometry relative="1" as="geometry">
            <Array as="points">
              <mxPoint x="990" y="455" />
              <mxPoint x="990" y="555" />
            </Array>
          </mxGeometry>
        </mxCell>
        <mxCell id="e8_UmXs5ctp9pTQ8ATcP-30" style="edgeStyle=orthogonalEdgeStyle;rounded=0;orthogonalLoop=1;jettySize=auto;html=1;entryX=1;entryY=0.5;entryDx=0;entryDy=0;" parent="1" source="e8_UmXs5ctp9pTQ8ATcP-6" target="e8_UmXs5ctp9pTQ8ATcP-23" edge="1">
          <mxGeometry relative="1" as="geometry">
            <Array as="points">
              <mxPoint x="990" y="455" />
              <mxPoint x="990" y="675" />
            </Array>
          </mxGeometry>
        </mxCell>
        <mxCell id="e8_UmXs5ctp9pTQ8ATcP-31" style="edgeStyle=orthogonalEdgeStyle;rounded=0;orthogonalLoop=1;jettySize=auto;html=1;entryX=1;entryY=0.5;entryDx=0;entryDy=0;" parent="1" source="e8_UmXs5ctp9pTQ8ATcP-6" target="e8_UmXs5ctp9pTQ8ATcP-21" edge="1">
          <mxGeometry relative="1" as="geometry">
            <Array as="points">
              <mxPoint x="990" y="455" />
              <mxPoint x="990" y="775" />
            </Array>
          </mxGeometry>
        </mxCell>
        <mxCell id="e8_UmXs5ctp9pTQ8ATcP-6" value="Sinh viên" style="shape=umlActor;verticalLabelPosition=bottom;verticalAlign=top;html=1;outlineConnect=0;" parent="1" vertex="1">
          <mxGeometry x="1030" y="425" width="30" height="60" as="geometry" />
        </mxCell>
        <mxCell id="e8_UmXs5ctp9pTQ8ATcP-8" value="Quản lý quyền hạn" style="ellipse;whiteSpace=wrap;html=1;" parent="1" vertex="1">
          <mxGeometry x="-110" y="710" width="140" height="70" as="geometry" />
        </mxCell>
        <mxCell id="e8_UmXs5ctp9pTQ8ATcP-10" value="Quản lý vai trò&amp;nbsp;" style="ellipse;whiteSpace=wrap;html=1;" parent="1" vertex="1">
          <mxGeometry x="-110" y="590" width="140" height="70" as="geometry" />
        </mxCell>
        <mxCell id="e8_UmXs5ctp9pTQ8ATcP-11" value="Quản lý môn học" style="ellipse;whiteSpace=wrap;html=1;" parent="1" vertex="1">
          <mxGeometry x="-110" y="820" width="140" height="70" as="geometry" />
        </mxCell>
        <mxCell id="e8_UmXs5ctp9pTQ8ATcP-12" value="Đánh giá môn học&amp;nbsp;" style="ellipse;whiteSpace=wrap;html=1;" parent="1" vertex="1">
          <mxGeometry x="380" y="330" width="140" height="70" as="geometry" />
        </mxCell>
        <mxCell id="e8_UmXs5ctp9pTQ8ATcP-13" value="Quản lý giảng viên" style="ellipse;whiteSpace=wrap;html=1;" parent="1" vertex="1">
          <mxGeometry x="-60" y="460" width="140" height="70" as="geometry" />
        </mxCell>
        <mxCell id="e8_UmXs5ctp9pTQ8ATcP-14" value="Quản lý sinh viên" style="ellipse;whiteSpace=wrap;html=1;" parent="1" vertex="1">
          <mxGeometry x="70" y="340" width="140" height="70" as="geometry" />
        </mxCell>
        <mxCell id="e8_UmXs5ctp9pTQ8ATcP-15" value="Bình luận về môn học&amp;nbsp;" style="ellipse;whiteSpace=wrap;html=1;" parent="1" vertex="1">
          <mxGeometry x="515" y="420" width="140" height="70" as="geometry" />
        </mxCell>
        <mxCell id="e8_UmXs5ctp9pTQ8ATcP-16" value="Xem các môn học đang dậy&amp;nbsp;&lt;span style=&quot;color: rgba(0, 0, 0, 0); font-family: monospace; font-size: 0px; text-align: start; text-wrap-mode: nowrap;&quot;&gt;%3CmxGraphModel%3E%3Croot%3E%3CmxCell%20id%3D%220%22%2F%3E%3CmxCell%20id%3D%221%22%20parent%3D%220%22%2F%3E%3CmxCell%20id%3D%222%22%20value%3D%22Qu%E1%BA%A3n%20l%C3%BD%20%C4%91%C3%A1nh%20gi%C3%A1%20m%C3%B4n%20h%E1%BB%8Dc%22%20style%3D%22ellipse%3BwhiteSpace%3Dwrap%3Bhtml%3D1%3B%22%20vertex%3D%221%22%20parent%3D%221%22%3E%3CmxGeometry%20x%3D%2240%22%20y%3D%22790%22%20width%3D%22140%22%20height%3D%2270%22%20as%3D%22geometry%22%2F%3E%3C%2FmxCell%3E%3C%2Froot%3E%3C%2FmxGraphModel%3E&lt;/span&gt;&lt;span style=&quot;color: rgba(0, 0, 0, 0); font-family: monospace; font-size: 0px; text-align: start; text-wrap-mode: nowrap;&quot;&gt;%3CmxGraphModel%3E%3Croot%3E%3CmxCell%20id%3D%220%22%2F%3E%3CmxCell%20id%3D%221%22%20parent%3D%220%22%2F%3E%3CmxCell%20id%3D%222%22%20value%3D%22Qu%E1%BA%A3n%20l%C3%BD%20%C4%91%C3%A1nh%20gi%C3%A1%20m%C3%B4n%20h%E1%BB%8Dc%22%20style%3D%22ellipse%3BwhiteSpace%3Dwrap%3Bhtml%3D1%3B%22%20vertex%3D%221%22%20parent%3D%221%22%3E%3CmxGeometry%20x%3D%2240%22%20y%3D%22790%22%20width%3D%22140%22%20height%3D%2270%22%20as%3D%22geometry%22%2F%3E%3C%2FmxCell%3E%3C%2Froot%3E%3C%2FmxGraphModel%3E&lt;/span&gt;" style="ellipse;whiteSpace=wrap;html=1;" parent="1" vertex="1">
          <mxGeometry x="450" y="940" width="140" height="70" as="geometry" />
        </mxCell>
        <mxCell id="e8_UmXs5ctp9pTQ8ATcP-17" value="Quản lý đánh giá môn học" style="ellipse;whiteSpace=wrap;html=1;" parent="1" vertex="1">
          <mxGeometry x="-60" y="910" width="140" height="70" as="geometry" />
        </mxCell>
        <mxCell id="e8_UmXs5ctp9pTQ8ATcP-18" value="Quản lý các báo cáo thông kê" style="ellipse;whiteSpace=wrap;html=1;" parent="1" vertex="1">
          <mxGeometry x="50" y="990" width="140" height="70" as="geometry" />
        </mxCell>
        <mxCell id="e8_UmXs5ctp9pTQ8ATcP-19" value="Xem đánh giá các môn học đã dậy&amp;nbsp;&amp;nbsp;" style="ellipse;whiteSpace=wrap;html=1;" parent="1" vertex="1">
          <mxGeometry x="590" y="860" width="140" height="70" as="geometry" />
        </mxCell>
        <mxCell id="e8_UmXs5ctp9pTQ8ATcP-20" value="Xem thời khóa biểu&amp;nbsp;" style="ellipse;whiteSpace=wrap;html=1;" parent="1" vertex="1">
          <mxGeometry x="590" y="520" width="140" height="70" as="geometry" />
        </mxCell>
        <mxCell id="e8_UmXs5ctp9pTQ8ATcP-21" value="Đổi mật khẩu&amp;nbsp;" style="ellipse;whiteSpace=wrap;html=1;" parent="1" vertex="1">
          <mxGeometry x="620" y="740" width="140" height="70" as="geometry" />
        </mxCell>
        <mxCell id="e8_UmXs5ctp9pTQ8ATcP-22" value="Đổi mật khẩu" style="ellipse;whiteSpace=wrap;html=1;" parent="1" vertex="1">
          <mxGeometry x="260" y="1040" width="140" height="70" as="geometry" />
        </mxCell>
        <mxCell id="e8_UmXs5ctp9pTQ8ATcP-23" value="Xem lịch sử đánh giá&amp;nbsp;" style="ellipse;whiteSpace=wrap;html=1;" parent="1" vertex="1">
          <mxGeometry x="620" y="640" width="140" height="70" as="geometry" />
        </mxCell>
        <mxCell id="e8_UmXs5ctp9pTQ8ATcP-24" value="Đăng nhập" style="ellipse;whiteSpace=wrap;html=1;" parent="1" vertex="1">
          <mxGeometry x="250" y="640" width="140" height="70" as="geometry" />
        </mxCell>
        <mxCell id="e8_UmXs5ctp9pTQ8ATcP-27" style="edgeStyle=orthogonalEdgeStyle;rounded=0;orthogonalLoop=1;jettySize=auto;html=1;entryX=0.964;entryY=0.4;entryDx=0;entryDy=0;entryPerimeter=0;" parent="1" source="e8_UmXs5ctp9pTQ8ATcP-6" target="e8_UmXs5ctp9pTQ8ATcP-12" edge="1">
          <mxGeometry relative="1" as="geometry">
            <Array as="points">
              <mxPoint x="1045" y="365" />
              <mxPoint x="515" y="365" />
            </Array>
          </mxGeometry>
        </mxCell>
        <mxCell id="e8_UmXs5ctp9pTQ8ATcP-43" style="edgeStyle=orthogonalEdgeStyle;rounded=0;orthogonalLoop=1;jettySize=auto;html=1;entryX=0.002;entryY=0.635;entryDx=0;entryDy=0;entryPerimeter=0;" parent="1" source="e8_UmXs5ctp9pTQ8ATcP-1" target="e8_UmXs5ctp9pTQ8ATcP-18" edge="1">
          <mxGeometry relative="1" as="geometry">
            <Array as="points">
              <mxPoint x="-200" y="675" />
              <mxPoint x="-200" y="1035" />
            </Array>
          </mxGeometry>
        </mxCell>
        <mxCell id="e8_UmXs5ctp9pTQ8ATcP-44" value="include" style="endArrow=open;endSize=12;dashed=1;html=1;rounded=0;exitX=0.966;exitY=0.424;exitDx=0;exitDy=0;exitPerimeter=0;entryX=0.024;entryY=0.577;entryDx=0;entryDy=0;entryPerimeter=0;" parent="1" source="e8_UmXs5ctp9pTQ8ATcP-8" target="e8_UmXs5ctp9pTQ8ATcP-24" edge="1">
          <mxGeometry width="160" relative="1" as="geometry">
            <mxPoint x="190" y="820" as="sourcePoint" />
            <mxPoint x="350" y="820" as="targetPoint" />
          </mxGeometry>
        </mxCell>
        <mxCell id="e8_UmXs5ctp9pTQ8ATcP-45" value="include" style="endArrow=open;endSize=12;dashed=1;html=1;rounded=0;exitX=0.982;exitY=0.583;exitDx=0;exitDy=0;exitPerimeter=0;entryX=-0.013;entryY=0.598;entryDx=0;entryDy=0;entryPerimeter=0;" parent="1" source="e8_UmXs5ctp9pTQ8ATcP-10" target="e8_UmXs5ctp9pTQ8ATcP-24" edge="1">
          <mxGeometry width="160" relative="1" as="geometry">
            <mxPoint x="35" y="750" as="sourcePoint" />
            <mxPoint x="263" y="690" as="targetPoint" />
          </mxGeometry>
        </mxCell>
        <mxCell id="e8_UmXs5ctp9pTQ8ATcP-46" value="include" style="endArrow=open;endSize=12;dashed=1;html=1;rounded=0;exitX=1;exitY=0.5;exitDx=0;exitDy=0;" parent="1" source="e8_UmXs5ctp9pTQ8ATcP-11" target="e8_UmXs5ctp9pTQ8ATcP-24" edge="1">
          <mxGeometry width="160" relative="1" as="geometry">
            <mxPoint x="35" y="750" as="sourcePoint" />
            <mxPoint x="263" y="690" as="targetPoint" />
          </mxGeometry>
        </mxCell>
        <mxCell id="e8_UmXs5ctp9pTQ8ATcP-49" value="include" style="endArrow=open;endSize=12;dashed=1;html=1;rounded=0;exitX=1;exitY=0.429;exitDx=0;exitDy=0;exitPerimeter=0;entryX=0.347;entryY=1.032;entryDx=0;entryDy=0;entryPerimeter=0;" parent="1" source="e8_UmXs5ctp9pTQ8ATcP-17" target="e8_UmXs5ctp9pTQ8ATcP-24" edge="1">
          <mxGeometry width="160" relative="1" as="geometry">
            <mxPoint x="40" y="855" as="sourcePoint" />
            <mxPoint x="285" y="712" as="targetPoint" />
          </mxGeometry>
        </mxCell>
        <mxCell id="e8_UmXs5ctp9pTQ8ATcP-50" value="include" style="endArrow=open;endSize=12;dashed=1;html=1;rounded=0;exitX=0.807;exitY=0.159;exitDx=0;exitDy=0;exitPerimeter=0;" parent="1" source="e8_UmXs5ctp9pTQ8ATcP-18" edge="1">
          <mxGeometry width="160" relative="1" as="geometry">
            <mxPoint x="170.00416499519596" y="979.3715954108682" as="sourcePoint" />
            <mxPoint x="325.6" y="710" as="targetPoint" />
          </mxGeometry>
        </mxCell>
        <mxCell id="e8_UmXs5ctp9pTQ8ATcP-51" value="include" style="endArrow=open;endSize=12;dashed=1;html=1;rounded=0;exitX=1.001;exitY=0.598;exitDx=0;exitDy=0;exitPerimeter=0;" parent="1" source="e8_UmXs5ctp9pTQ8ATcP-13" target="e8_UmXs5ctp9pTQ8ATcP-24" edge="1">
          <mxGeometry x="0.0013" width="160" relative="1" as="geometry">
            <mxPoint x="60" y="875" as="sourcePoint" />
            <mxPoint x="305" y="732" as="targetPoint" />
            <mxPoint as="offset" />
          </mxGeometry>
        </mxCell>
        <mxCell id="e8_UmXs5ctp9pTQ8ATcP-52" value="include" style="endArrow=open;endSize=12;dashed=1;html=1;rounded=0;exitX=1;exitY=1;exitDx=0;exitDy=0;entryX=0.548;entryY=0.016;entryDx=0;entryDy=0;entryPerimeter=0;" parent="1" source="e8_UmXs5ctp9pTQ8ATcP-14" target="e8_UmXs5ctp9pTQ8ATcP-24" edge="1">
          <mxGeometry width="160" relative="1" as="geometry">
            <mxPoint x="90" y="512" as="sourcePoint" />
            <mxPoint x="290" y="656" as="targetPoint" />
          </mxGeometry>
        </mxCell>
        <mxCell id="e8_UmXs5ctp9pTQ8ATcP-53" value="include" style="endArrow=open;endSize=12;dashed=1;html=1;rounded=0;exitX=0.5;exitY=1;exitDx=0;exitDy=0;entryX=0.686;entryY=-0.005;entryDx=0;entryDy=0;entryPerimeter=0;" parent="1" source="e8_UmXs5ctp9pTQ8ATcP-12" target="e8_UmXs5ctp9pTQ8ATcP-24" edge="1">
          <mxGeometry width="160" relative="1" as="geometry">
            <mxPoint x="199" y="410" as="sourcePoint" />
            <mxPoint x="337" y="651" as="targetPoint" />
          </mxGeometry>
        </mxCell>
        <mxCell id="e8_UmXs5ctp9pTQ8ATcP-54" value="include" style="endArrow=open;endSize=12;dashed=1;html=1;rounded=0;exitX=0;exitY=1;exitDx=0;exitDy=0;entryX=1;entryY=0;entryDx=0;entryDy=0;" parent="1" source="e8_UmXs5ctp9pTQ8ATcP-15" target="e8_UmXs5ctp9pTQ8ATcP-24" edge="1">
          <mxGeometry width="160" relative="1" as="geometry">
            <mxPoint x="209" y="420" as="sourcePoint" />
            <mxPoint x="347" y="661" as="targetPoint" />
          </mxGeometry>
        </mxCell>
        <mxCell id="e8_UmXs5ctp9pTQ8ATcP-55" value="include" style="endArrow=open;endSize=12;dashed=1;html=1;rounded=0;exitX=0.044;exitY=0.614;exitDx=0;exitDy=0;entryX=0.985;entryY=0.394;entryDx=0;entryDy=0;entryPerimeter=0;exitPerimeter=0;" parent="1" source="e8_UmXs5ctp9pTQ8ATcP-20" target="e8_UmXs5ctp9pTQ8ATcP-24" edge="1">
          <mxGeometry width="160" relative="1" as="geometry">
            <mxPoint x="219" y="430" as="sourcePoint" />
            <mxPoint x="357" y="671" as="targetPoint" />
          </mxGeometry>
        </mxCell>
        <mxCell id="e8_UmXs5ctp9pTQ8ATcP-56" value="include" style="endArrow=open;endSize=12;dashed=1;html=1;rounded=0;entryX=0.979;entryY=0.64;entryDx=0;entryDy=0;entryPerimeter=0;" parent="1" source="e8_UmXs5ctp9pTQ8ATcP-23" target="e8_UmXs5ctp9pTQ8ATcP-24" edge="1">
          <mxGeometry width="160" relative="1" as="geometry">
            <mxPoint x="229" y="440" as="sourcePoint" />
            <mxPoint x="367" y="681" as="targetPoint" />
          </mxGeometry>
        </mxCell>
        <mxCell id="e8_UmXs5ctp9pTQ8ATcP-57" value="include" style="endArrow=open;endSize=12;dashed=1;html=1;rounded=0;entryX=1;entryY=1;entryDx=0;entryDy=0;exitX=0.018;exitY=0.419;exitDx=0;exitDy=0;exitPerimeter=0;" parent="1" source="e8_UmXs5ctp9pTQ8ATcP-21" target="e8_UmXs5ctp9pTQ8ATcP-24" edge="1">
          <mxGeometry width="160" relative="1" as="geometry">
            <mxPoint x="630" y="687" as="sourcePoint" />
            <mxPoint x="397" y="695" as="targetPoint" />
          </mxGeometry>
        </mxCell>
        <mxCell id="e8_UmXs5ctp9pTQ8ATcP-58" value="include" style="endArrow=open;endSize=12;dashed=1;html=1;rounded=0;entryX=1;entryY=1;entryDx=0;entryDy=0;exitX=0;exitY=0.5;exitDx=0;exitDy=0;" parent="1" source="e8_UmXs5ctp9pTQ8ATcP-19" target="e8_UmXs5ctp9pTQ8ATcP-24" edge="1">
          <mxGeometry width="160" relative="1" as="geometry">
            <mxPoint x="630" y="687" as="sourcePoint" />
            <mxPoint x="397" y="695" as="targetPoint" />
          </mxGeometry>
        </mxCell>
        <mxCell id="e8_UmXs5ctp9pTQ8ATcP-59" value="include" style="endArrow=open;endSize=12;dashed=1;html=1;rounded=0;exitX=0.5;exitY=0;exitDx=0;exitDy=0;entryX=0.771;entryY=0.874;entryDx=0;entryDy=0;entryPerimeter=0;" parent="1" source="e8_UmXs5ctp9pTQ8ATcP-16" target="e8_UmXs5ctp9pTQ8ATcP-24" edge="1">
          <mxGeometry width="160" relative="1" as="geometry">
            <mxPoint x="630" y="687" as="sourcePoint" />
            <mxPoint x="370" y="700" as="targetPoint" />
          </mxGeometry>
        </mxCell>
        <mxCell id="e8_UmXs5ctp9pTQ8ATcP-60" value="include" style="endArrow=open;endSize=12;dashed=1;html=1;rounded=0;entryX=0.68;entryY=0.952;entryDx=0;entryDy=0;exitX=0.582;exitY=-0.009;exitDx=0;exitDy=0;exitPerimeter=0;entryPerimeter=0;" parent="1" source="e8_UmXs5ctp9pTQ8ATcP-22" target="e8_UmXs5ctp9pTQ8ATcP-24" edge="1">
          <mxGeometry width="160" relative="1" as="geometry">
            <mxPoint x="630" y="687" as="sourcePoint" />
            <mxPoint x="397" y="695" as="targetPoint" />
          </mxGeometry>
        </mxCell>
        <mxCell id="PkPAs3pM2fGUrfEXWNbL-16" style="edgeStyle=orthogonalEdgeStyle;rounded=0;orthogonalLoop=1;jettySize=auto;html=1;entryX=0;entryY=0.5;entryDx=0;entryDy=0;" parent="1" source="PkPAs3pM2fGUrfEXWNbL-1" target="PkPAs3pM2fGUrfEXWNbL-2" edge="1">
          <mxGeometry relative="1" as="geometry" />
        </mxCell>
        <mxCell id="PkPAs3pM2fGUrfEXWNbL-1" value="Admin" style="shape=umlActor;verticalLabelPosition=bottom;verticalAlign=top;html=1;outlineConnect=0;" parent="1" vertex="1">
          <mxGeometry x="1090" y="1345" width="30" height="60" as="geometry" />
        </mxCell>
        <mxCell id="PkPAs3pM2fGUrfEXWNbL-2" value="Quản lý sinh viên" style="ellipse;whiteSpace=wrap;html=1;" parent="1" vertex="1">
          <mxGeometry x="1235" y="1340" width="140" height="70" as="geometry" />
        </mxCell>
        <mxCell id="PkPAs3pM2fGUrfEXWNbL-3" value="Thêm tài khoản sinh viên mới&amp;nbsp;" style="ellipse;whiteSpace=wrap;html=1;" parent="1" vertex="1">
          <mxGeometry x="1680" y="1310" width="120" height="70" as="geometry" />
        </mxCell>
        <mxCell id="PkPAs3pM2fGUrfEXWNbL-4" value="Sửa thông tin của sinh viên" style="ellipse;whiteSpace=wrap;html=1;" parent="1" vertex="1">
          <mxGeometry x="1680" y="1380" width="120" height="70" as="geometry" />
        </mxCell>
        <mxCell id="PkPAs3pM2fGUrfEXWNbL-5" value="Xóa thông tài khoản sinh viên&amp;nbsp;" style="ellipse;whiteSpace=wrap;html=1;" parent="1" vertex="1">
          <mxGeometry x="1680" y="1450" width="120" height="70" as="geometry" />
        </mxCell>
        <mxCell id="PkPAs3pM2fGUrfEXWNbL-6" value="Thêm tài khoản sinh viên qua file exel" style="ellipse;whiteSpace=wrap;html=1;" parent="1" vertex="1">
          <mxGeometry x="1680" y="1240" width="120" height="70" as="geometry" />
        </mxCell>
        <mxCell id="PkPAs3pM2fGUrfEXWNbL-12" value="include" style="endArrow=open;endSize=12;dashed=1;html=1;rounded=0;exitX=0;exitY=0.5;exitDx=0;exitDy=0;entryX=1;entryY=0.5;entryDx=0;entryDy=0;" parent="1" source="PkPAs3pM2fGUrfEXWNbL-6" target="PkPAs3pM2fGUrfEXWNbL-2" edge="1">
          <mxGeometry width="160" relative="1" as="geometry">
            <mxPoint x="1770" y="1350" as="sourcePoint" />
            <mxPoint x="1930" y="1350" as="targetPoint" />
          </mxGeometry>
        </mxCell>
        <mxCell id="PkPAs3pM2fGUrfEXWNbL-13" value="include" style="endArrow=open;endSize=12;dashed=1;html=1;rounded=0;exitX=0;exitY=0.5;exitDx=0;exitDy=0;entryX=1;entryY=0.5;entryDx=0;entryDy=0;" parent="1" source="PkPAs3pM2fGUrfEXWNbL-3" target="PkPAs3pM2fGUrfEXWNbL-2" edge="1">
          <mxGeometry x="-0.0012" width="160" relative="1" as="geometry">
            <mxPoint x="1770" y="1350" as="sourcePoint" />
            <mxPoint x="1930" y="1350" as="targetPoint" />
            <mxPoint as="offset" />
          </mxGeometry>
        </mxCell>
        <mxCell id="PkPAs3pM2fGUrfEXWNbL-14" value="extend" style="endArrow=open;endSize=12;dashed=1;html=1;rounded=0;exitX=0;exitY=0.5;exitDx=0;exitDy=0;entryX=1;entryY=0.429;entryDx=0;entryDy=0;entryPerimeter=0;" parent="1" source="PkPAs3pM2fGUrfEXWNbL-4" target="PkPAs3pM2fGUrfEXWNbL-41" edge="1">
          <mxGeometry x="0.0012" width="160" relative="1" as="geometry">
            <mxPoint x="1770" y="1350" as="sourcePoint" />
            <mxPoint x="1930" y="1350" as="targetPoint" />
            <mxPoint as="offset" />
          </mxGeometry>
        </mxCell>
        <mxCell id="PkPAs3pM2fGUrfEXWNbL-15" value="extend" style="endArrow=open;endSize=12;dashed=1;html=1;rounded=0;exitX=0;exitY=0.5;exitDx=0;exitDy=0;entryX=1;entryY=0.5;entryDx=0;entryDy=0;" parent="1" source="PkPAs3pM2fGUrfEXWNbL-5" target="PkPAs3pM2fGUrfEXWNbL-41" edge="1">
          <mxGeometry width="160" relative="1" as="geometry">
            <mxPoint x="1770" y="1350" as="sourcePoint" />
            <mxPoint x="1930" y="1350" as="targetPoint" />
          </mxGeometry>
        </mxCell>
        <mxCell id="PkPAs3pM2fGUrfEXWNbL-32" style="edgeStyle=orthogonalEdgeStyle;rounded=0;orthogonalLoop=1;jettySize=auto;html=1;" parent="1" source="PkPAs3pM2fGUrfEXWNbL-17" target="PkPAs3pM2fGUrfEXWNbL-18" edge="1">
          <mxGeometry relative="1" as="geometry" />
        </mxCell>
        <mxCell id="PkPAs3pM2fGUrfEXWNbL-17" value="Admin" style="shape=umlActor;verticalLabelPosition=bottom;verticalAlign=top;html=1;" parent="1" vertex="1">
          <mxGeometry x="1080" y="1724" width="30" height="60" as="geometry" />
        </mxCell>
        <mxCell id="PkPAs3pM2fGUrfEXWNbL-18" value="Quản lý giảng viên" style="ellipse;whiteSpace=wrap;html=1;" parent="1" vertex="1">
          <mxGeometry x="1225" y="1719" width="140" height="70" as="geometry" />
        </mxCell>
        <mxCell id="PkPAs3pM2fGUrfEXWNbL-21" value="Thêm tài khoản giảng viên" style="ellipse;whiteSpace=wrap;html=1;" parent="1" vertex="1">
          <mxGeometry x="1670" y="1670" width="140" height="70" as="geometry" />
        </mxCell>
        <mxCell id="PkPAs3pM2fGUrfEXWNbL-22" value="Thêm tài khoản giảng viên qua exel" style="ellipse;whiteSpace=wrap;html=1;" parent="1" vertex="1">
          <mxGeometry x="1670" y="1600" width="140" height="70" as="geometry" />
        </mxCell>
        <mxCell id="PkPAs3pM2fGUrfEXWNbL-23" value="Sửa thông tin của giảng viên" style="ellipse;whiteSpace=wrap;html=1;" parent="1" vertex="1">
          <mxGeometry x="1670" y="1740" width="140" height="70" as="geometry" />
        </mxCell>
        <mxCell id="PkPAs3pM2fGUrfEXWNbL-24" value="Xóa tài khoản giảng viên" style="ellipse;whiteSpace=wrap;html=1;" parent="1" vertex="1">
          <mxGeometry x="1670" y="1810" width="140" height="70" as="geometry" />
        </mxCell>
        <mxCell id="PkPAs3pM2fGUrfEXWNbL-25" value="Tìm kiếm thông tin giảng viên" style="ellipse;whiteSpace=wrap;html=1;" parent="1" vertex="1">
          <mxGeometry x="1460" y="1770" width="140" height="70" as="geometry" />
        </mxCell>
        <mxCell id="PkPAs3pM2fGUrfEXWNbL-26" value="extend" style="endArrow=open;endSize=12;dashed=1;html=1;rounded=0;exitX=0;exitY=0.5;exitDx=0;exitDy=0;" parent="1" source="PkPAs3pM2fGUrfEXWNbL-23" target="PkPAs3pM2fGUrfEXWNbL-25" edge="1">
          <mxGeometry width="160" relative="1" as="geometry">
            <mxPoint x="1680" y="1555" as="sourcePoint" />
            <mxPoint x="1500" y="1445" as="targetPoint" />
          </mxGeometry>
        </mxCell>
        <mxCell id="PkPAs3pM2fGUrfEXWNbL-27" value="extend" style="endArrow=open;endSize=12;dashed=1;html=1;rounded=0;" parent="1" source="PkPAs3pM2fGUrfEXWNbL-24" target="PkPAs3pM2fGUrfEXWNbL-25" edge="1">
          <mxGeometry width="160" relative="1" as="geometry">
            <mxPoint x="1680" y="1555" as="sourcePoint" />
            <mxPoint x="1500" y="1445" as="targetPoint" />
          </mxGeometry>
        </mxCell>
        <mxCell id="PkPAs3pM2fGUrfEXWNbL-28" value="include" style="endArrow=open;endSize=12;dashed=1;html=1;rounded=0;entryX=1;entryY=0.5;entryDx=0;entryDy=0;" parent="1" target="PkPAs3pM2fGUrfEXWNbL-18" edge="1">
          <mxGeometry width="160" relative="1" as="geometry">
            <mxPoint x="1673" y="1645" as="sourcePoint" />
            <mxPoint x="1500" y="1445" as="targetPoint" />
          </mxGeometry>
        </mxCell>
        <mxCell id="PkPAs3pM2fGUrfEXWNbL-29" value="include" style="endArrow=open;endSize=12;dashed=1;html=1;rounded=0;exitX=0.01;exitY=0.577;exitDx=0;exitDy=0;entryX=1;entryY=0.5;entryDx=0;entryDy=0;exitPerimeter=0;" parent="1" source="PkPAs3pM2fGUrfEXWNbL-21" target="PkPAs3pM2fGUrfEXWNbL-18" edge="1">
          <mxGeometry x="-0.0044" y="8" width="160" relative="1" as="geometry">
            <mxPoint x="1680" y="1555" as="sourcePoint" />
            <mxPoint x="1500" y="1445" as="targetPoint" />
            <mxPoint as="offset" />
          </mxGeometry>
        </mxCell>
        <mxCell id="PkPAs3pM2fGUrfEXWNbL-30" value="include" style="endArrow=open;endSize=12;dashed=1;html=1;rounded=0;exitX=0.017;exitY=0.419;exitDx=0;exitDy=0;entryX=1;entryY=0.5;entryDx=0;entryDy=0;exitPerimeter=0;" parent="1" source="PkPAs3pM2fGUrfEXWNbL-25" target="PkPAs3pM2fGUrfEXWNbL-18" edge="1">
          <mxGeometry width="160" relative="1" as="geometry">
            <mxPoint x="1680" y="1555" as="sourcePoint" />
            <mxPoint x="1500" y="1445" as="targetPoint" />
          </mxGeometry>
        </mxCell>
        <mxCell id="PkPAs3pM2fGUrfEXWNbL-31" value="Đăng nhập" style="ellipse;whiteSpace=wrap;html=1;" parent="1" vertex="1">
          <mxGeometry x="1225" y="1600" width="140" height="70" as="geometry" />
        </mxCell>
        <mxCell id="PkPAs3pM2fGUrfEXWNbL-34" value="Include" style="endArrow=open;endSize=12;dashed=1;html=1;rounded=0;entryX=0.5;entryY=1;entryDx=0;entryDy=0;" parent="1" source="PkPAs3pM2fGUrfEXWNbL-18" target="PkPAs3pM2fGUrfEXWNbL-31" edge="1">
          <mxGeometry width="160" relative="1" as="geometry">
            <mxPoint x="1673" y="1645" as="sourcePoint" />
            <mxPoint x="1500" y="1445" as="targetPoint" />
          </mxGeometry>
        </mxCell>
        <mxCell id="PkPAs3pM2fGUrfEXWNbL-38" value="Đăng nhập" style="ellipse;whiteSpace=wrap;html=1;" parent="1" vertex="1">
          <mxGeometry x="1245" y="1200" width="120" height="80" as="geometry" />
        </mxCell>
        <mxCell id="PkPAs3pM2fGUrfEXWNbL-40" value="Include" style="endArrow=open;endSize=12;dashed=1;html=1;rounded=0;entryX=0.5;entryY=1;entryDx=0;entryDy=0;exitX=0.5;exitY=0;exitDx=0;exitDy=0;" parent="1" source="PkPAs3pM2fGUrfEXWNbL-2" target="PkPAs3pM2fGUrfEXWNbL-38" edge="1">
          <mxGeometry width="160" relative="1" as="geometry">
            <mxPoint x="1390" y="1320" as="sourcePoint" />
            <mxPoint x="1290" y="1330" as="targetPoint" />
          </mxGeometry>
        </mxCell>
        <mxCell id="PkPAs3pM2fGUrfEXWNbL-41" value="Tìm kiếm thông tin giảng&amp;nbsp; viên" style="ellipse;whiteSpace=wrap;html=1;" parent="1" vertex="1">
          <mxGeometry x="1470" y="1410" width="140" height="70" as="geometry" />
        </mxCell>
        <mxCell id="PkPAs3pM2fGUrfEXWNbL-43" value="include" style="endArrow=open;endSize=12;dashed=1;html=1;rounded=0;exitX=0;exitY=0.5;exitDx=0;exitDy=0;entryX=1;entryY=0.5;entryDx=0;entryDy=0;" parent="1" source="PkPAs3pM2fGUrfEXWNbL-41" target="PkPAs3pM2fGUrfEXWNbL-2" edge="1">
          <mxGeometry x="0.0012" width="160" relative="1" as="geometry">
            <mxPoint x="1770" y="1350" as="sourcePoint" />
            <mxPoint x="1930" y="1350" as="targetPoint" />
            <mxPoint as="offset" />
          </mxGeometry>
        </mxCell>
        <mxCell id="PkPAs3pM2fGUrfEXWNbL-44" value="Quản lý vai trò&amp;nbsp;" style="ellipse;whiteSpace=wrap;html=1;" parent="1" vertex="1">
          <mxGeometry x="1225" y="2105" width="140" height="70" as="geometry" />
        </mxCell>
        <mxCell id="PkPAs3pM2fGUrfEXWNbL-48" style="edgeStyle=orthogonalEdgeStyle;rounded=0;orthogonalLoop=1;jettySize=auto;html=1;" parent="1" source="PkPAs3pM2fGUrfEXWNbL-49" edge="1">
          <mxGeometry relative="1" as="geometry">
            <mxPoint x="1225" y="2140" as="targetPoint" />
          </mxGeometry>
        </mxCell>
        <mxCell id="PkPAs3pM2fGUrfEXWNbL-49" value="Admin" style="shape=umlActor;verticalLabelPosition=bottom;verticalAlign=top;html=1;" parent="1" vertex="1">
          <mxGeometry x="1080" y="2110" width="30" height="60" as="geometry" />
        </mxCell>
        <mxCell id="PkPAs3pM2fGUrfEXWNbL-51" value="Đăng nhập" style="ellipse;whiteSpace=wrap;html=1;" parent="1" vertex="1">
          <mxGeometry x="1225" y="1990" width="140" height="70" as="geometry" />
        </mxCell>
        <mxCell id="PkPAs3pM2fGUrfEXWNbL-52" value="Xem danh sách vai trò&amp;nbsp;" style="ellipse;whiteSpace=wrap;html=1;" parent="1" vertex="1">
          <mxGeometry x="1514" y="2110" width="140" height="70" as="geometry" />
        </mxCell>
        <mxCell id="PkPAs3pM2fGUrfEXWNbL-59" value="Cập nhật vai trò&amp;nbsp;" style="ellipse;whiteSpace=wrap;html=1;" parent="1" vertex="1">
          <mxGeometry x="1810" y="2035" width="140" height="70" as="geometry" />
        </mxCell>
        <mxCell id="PkPAs3pM2fGUrfEXWNbL-60" value="Gắn quyền cho vai trò" style="ellipse;whiteSpace=wrap;html=1;" parent="1" vertex="1">
          <mxGeometry x="1810" y="2175" width="140" height="70" as="geometry" />
        </mxCell>
        <mxCell id="PkPAs3pM2fGUrfEXWNbL-61" value="Thêm vai trò mới&amp;nbsp;" style="ellipse;whiteSpace=wrap;html=1;" parent="1" vertex="1">
          <mxGeometry x="1514" y="1990" width="140" height="70" as="geometry" />
        </mxCell>
        <mxCell id="PkPAs3pM2fGUrfEXWNbL-62" value="Xóa vai trò&amp;nbsp;" style="ellipse;whiteSpace=wrap;html=1;" parent="1" vertex="1">
          <mxGeometry x="1810" y="2105" width="140" height="70" as="geometry" />
        </mxCell>
        <mxCell id="PkPAs3pM2fGUrfEXWNbL-64" value="Include" style="endArrow=open;endSize=12;dashed=1;html=1;rounded=0;exitX=0.5;exitY=0;exitDx=0;exitDy=0;" parent="1" source="PkPAs3pM2fGUrfEXWNbL-44" target="PkPAs3pM2fGUrfEXWNbL-51" edge="1">
          <mxGeometry width="160" relative="1" as="geometry">
            <mxPoint x="1380" y="2110" as="sourcePoint" />
            <mxPoint x="1540" y="2110" as="targetPoint" />
          </mxGeometry>
        </mxCell>
        <mxCell id="PkPAs3pM2fGUrfEXWNbL-65" value="Include" style="endArrow=open;endSize=12;dashed=1;html=1;rounded=0;exitX=0.021;exitY=0.567;exitDx=0;exitDy=0;exitPerimeter=0;entryX=1;entryY=0.5;entryDx=0;entryDy=0;" parent="1" source="PkPAs3pM2fGUrfEXWNbL-52" target="PkPAs3pM2fGUrfEXWNbL-44" edge="1">
          <mxGeometry x="-0.0038" width="160" relative="1" as="geometry">
            <mxPoint x="1380" y="2110" as="sourcePoint" />
            <mxPoint x="1540" y="2110" as="targetPoint" />
            <mxPoint as="offset" />
          </mxGeometry>
        </mxCell>
        <mxCell id="PkPAs3pM2fGUrfEXWNbL-66" value="Include" style="endArrow=open;endSize=12;dashed=1;html=1;rounded=0;exitX=0.031;exitY=0.577;exitDx=0;exitDy=0;exitPerimeter=0;entryX=1;entryY=0.5;entryDx=0;entryDy=0;" parent="1" source="PkPAs3pM2fGUrfEXWNbL-61" target="PkPAs3pM2fGUrfEXWNbL-44" edge="1">
          <mxGeometry width="160" relative="1" as="geometry">
            <mxPoint x="1380" y="2110" as="sourcePoint" />
            <mxPoint x="1540" y="2110" as="targetPoint" />
          </mxGeometry>
        </mxCell>
        <mxCell id="PkPAs3pM2fGUrfEXWNbL-67" value="Extend" style="endArrow=open;endSize=12;dashed=1;html=1;rounded=0;exitX=0;exitY=0.5;exitDx=0;exitDy=0;entryX=1;entryY=0.5;entryDx=0;entryDy=0;" parent="1" source="PkPAs3pM2fGUrfEXWNbL-60" target="PkPAs3pM2fGUrfEXWNbL-52" edge="1">
          <mxGeometry x="-0.0039" width="160" relative="1" as="geometry">
            <mxPoint x="1670" y="2080" as="sourcePoint" />
            <mxPoint x="1830" y="2080" as="targetPoint" />
            <mxPoint as="offset" />
          </mxGeometry>
        </mxCell>
        <mxCell id="PkPAs3pM2fGUrfEXWNbL-68" value="Extend" style="endArrow=open;endSize=12;dashed=1;html=1;rounded=0;exitX=0.02;exitY=0.579;exitDx=0;exitDy=0;entryX=1;entryY=0.5;entryDx=0;entryDy=0;exitPerimeter=0;" parent="1" source="PkPAs3pM2fGUrfEXWNbL-62" target="PkPAs3pM2fGUrfEXWNbL-52" edge="1">
          <mxGeometry width="160" relative="1" as="geometry">
            <mxPoint x="1670" y="2080" as="sourcePoint" />
            <mxPoint x="1830" y="2080" as="targetPoint" />
          </mxGeometry>
        </mxCell>
        <mxCell id="PkPAs3pM2fGUrfEXWNbL-69" value="Extend" style="endArrow=open;endSize=12;dashed=1;html=1;rounded=0;entryX=1;entryY=0.5;entryDx=0;entryDy=0;" parent="1" source="PkPAs3pM2fGUrfEXWNbL-59" target="PkPAs3pM2fGUrfEXWNbL-52" edge="1">
          <mxGeometry width="160" relative="1" as="geometry">
            <mxPoint x="1670" y="2080" as="sourcePoint" />
            <mxPoint x="1830" y="2080" as="targetPoint" />
          </mxGeometry>
        </mxCell>
        <mxCell id="PkPAs3pM2fGUrfEXWNbL-70" value="Quản lý quyền hạn" style="ellipse;whiteSpace=wrap;html=1;" parent="1" vertex="1">
          <mxGeometry x="1225" y="2495" width="140" height="70" as="geometry" />
        </mxCell>
        <mxCell id="PkPAs3pM2fGUrfEXWNbL-73" style="edgeStyle=orthogonalEdgeStyle;rounded=0;orthogonalLoop=1;jettySize=auto;html=1;" parent="1" source="PkPAs3pM2fGUrfEXWNbL-72" target="PkPAs3pM2fGUrfEXWNbL-70" edge="1">
          <mxGeometry relative="1" as="geometry" />
        </mxCell>
        <mxCell id="PkPAs3pM2fGUrfEXWNbL-72" value="Admin" style="shape=umlActor;verticalLabelPosition=bottom;verticalAlign=top;html=1;" parent="1" vertex="1">
          <mxGeometry x="1080" y="2500" width="30" height="60" as="geometry" />
        </mxCell>
        <mxCell id="PkPAs3pM2fGUrfEXWNbL-74" value="Đăng nhập" style="ellipse;whiteSpace=wrap;html=1;" parent="1" vertex="1">
          <mxGeometry x="1225" y="2370" width="140" height="70" as="geometry" />
        </mxCell>
        <mxCell id="PkPAs3pM2fGUrfEXWNbL-75" value="Include" style="endArrow=open;endSize=12;dashed=1;html=1;rounded=0;exitX=0.5;exitY=0;exitDx=0;exitDy=0;entryX=0.5;entryY=1;entryDx=0;entryDy=0;" parent="1" source="PkPAs3pM2fGUrfEXWNbL-70" target="PkPAs3pM2fGUrfEXWNbL-74" edge="1">
          <mxGeometry width="160" relative="1" as="geometry">
            <mxPoint x="1360" y="2475" as="sourcePoint" />
            <mxPoint x="1520" y="2475" as="targetPoint" />
          </mxGeometry>
        </mxCell>
        <mxCell id="PkPAs3pM2fGUrfEXWNbL-76" value="Thêm quyền mới&amp;nbsp;" style="ellipse;whiteSpace=wrap;html=1;" parent="1" vertex="1">
          <mxGeometry x="1530" y="2370" width="140" height="70" as="geometry" />
        </mxCell>
        <mxCell id="PkPAs3pM2fGUrfEXWNbL-77" value="Xem danh sách các quyền&amp;nbsp;" style="ellipse;whiteSpace=wrap;html=1;" parent="1" vertex="1">
          <mxGeometry x="1530" y="2495" width="140" height="70" as="geometry" />
        </mxCell>
        <mxCell id="PkPAs3pM2fGUrfEXWNbL-78" value="Sửa quyền&amp;nbsp;" style="ellipse;whiteSpace=wrap;html=1;" parent="1" vertex="1">
          <mxGeometry x="1790" y="2455" width="140" height="70" as="geometry" />
        </mxCell>
        <mxCell id="PkPAs3pM2fGUrfEXWNbL-79" value="Xóa quyền&amp;nbsp;" style="ellipse;whiteSpace=wrap;html=1;" parent="1" vertex="1">
          <mxGeometry x="1790" y="2525" width="140" height="70" as="geometry" />
        </mxCell>
        <mxCell id="PkPAs3pM2fGUrfEXWNbL-80" value="Include" style="endArrow=open;endSize=12;dashed=1;html=1;rounded=0;exitX=0;exitY=0.5;exitDx=0;exitDy=0;entryX=1;entryY=0.5;entryDx=0;entryDy=0;" parent="1" source="PkPAs3pM2fGUrfEXWNbL-77" target="PkPAs3pM2fGUrfEXWNbL-70" edge="1">
          <mxGeometry width="160" relative="1" as="geometry">
            <mxPoint x="1350" y="2465" as="sourcePoint" />
            <mxPoint x="1370" y="2525" as="targetPoint" />
          </mxGeometry>
        </mxCell>
        <mxCell id="PkPAs3pM2fGUrfEXWNbL-82" value="Include" style="endArrow=open;endSize=12;dashed=1;html=1;rounded=0;exitX=0;exitY=0.5;exitDx=0;exitDy=0;entryX=1;entryY=0.5;entryDx=0;entryDy=0;" parent="1" source="PkPAs3pM2fGUrfEXWNbL-76" target="PkPAs3pM2fGUrfEXWNbL-70" edge="1">
          <mxGeometry width="160" relative="1" as="geometry">
            <mxPoint x="1350" y="2465" as="sourcePoint" />
            <mxPoint x="1370" y="2525" as="targetPoint" />
          </mxGeometry>
        </mxCell>
        <mxCell id="PkPAs3pM2fGUrfEXWNbL-83" value="Extend" style="endArrow=open;endSize=12;dashed=1;html=1;rounded=0;entryX=1;entryY=0.5;entryDx=0;entryDy=0;exitX=0;exitY=0.5;exitDx=0;exitDy=0;" parent="1" source="PkPAs3pM2fGUrfEXWNbL-78" target="PkPAs3pM2fGUrfEXWNbL-77" edge="1">
          <mxGeometry width="160" relative="1" as="geometry">
            <mxPoint x="1740" y="2480" as="sourcePoint" />
            <mxPoint x="1760" y="2440" as="targetPoint" />
          </mxGeometry>
        </mxCell>
        <mxCell id="PkPAs3pM2fGUrfEXWNbL-85" value="Extend" style="endArrow=open;endSize=12;dashed=1;html=1;rounded=0;entryX=1;entryY=0.5;entryDx=0;entryDy=0;" parent="1" source="PkPAs3pM2fGUrfEXWNbL-79" target="PkPAs3pM2fGUrfEXWNbL-77" edge="1">
          <mxGeometry width="160" relative="1" as="geometry">
            <mxPoint x="1740" y="2480" as="sourcePoint" />
            <mxPoint x="1760" y="2440" as="targetPoint" />
          </mxGeometry>
        </mxCell>
        <mxCell id="PkPAs3pM2fGUrfEXWNbL-99" value="Quản lý môn học" style="ellipse;whiteSpace=wrap;html=1;" parent="1" vertex="1">
          <mxGeometry x="1225" y="2835" width="140" height="70" as="geometry" />
        </mxCell>
        <mxCell id="PkPAs3pM2fGUrfEXWNbL-101" style="edgeStyle=orthogonalEdgeStyle;rounded=0;orthogonalLoop=1;jettySize=auto;html=1;entryX=0;entryY=0.5;entryDx=0;entryDy=0;" parent="1" source="PkPAs3pM2fGUrfEXWNbL-100" target="PkPAs3pM2fGUrfEXWNbL-99" edge="1">
          <mxGeometry relative="1" as="geometry" />
        </mxCell>
        <mxCell id="PkPAs3pM2fGUrfEXWNbL-100" value="Admin" style="shape=umlActor;verticalLabelPosition=bottom;verticalAlign=top;html=1;" parent="1" vertex="1">
          <mxGeometry x="1081" y="2840" width="30" height="60" as="geometry" />
        </mxCell>
        <mxCell id="PkPAs3pM2fGUrfEXWNbL-102" value="Xóa môn học&amp;nbsp;" style="ellipse;whiteSpace=wrap;html=1;" parent="1" vertex="1">
          <mxGeometry x="1970" y="2922" width="140" height="70" as="geometry" />
        </mxCell>
        <mxCell id="PkPAs3pM2fGUrfEXWNbL-103" value="Sửa môn học&amp;nbsp;" style="ellipse;whiteSpace=wrap;html=1;" parent="1" vertex="1">
          <mxGeometry x="1970" y="2820" width="140" height="70" as="geometry" />
        </mxCell>
        <mxCell id="PkPAs3pM2fGUrfEXWNbL-104" value="Tìm kiếm theo môn / kì / ngành" style="ellipse;whiteSpace=wrap;html=1;" parent="1" vertex="1">
          <mxGeometry x="1480" y="2900" width="140" height="70" as="geometry" />
        </mxCell>
        <mxCell id="PkPAs3pM2fGUrfEXWNbL-105" value="Thêm môn học&amp;nbsp;" style="ellipse;whiteSpace=wrap;html=1;" parent="1" vertex="1">
          <mxGeometry x="1480" y="2790" width="140" height="70" as="geometry" />
        </mxCell>
        <mxCell id="PkPAs3pM2fGUrfEXWNbL-107" value="Đang nhập" style="ellipse;whiteSpace=wrap;html=1;" parent="1" vertex="1">
          <mxGeometry x="1225" y="2710" width="140" height="70" as="geometry" />
        </mxCell>
        <mxCell id="PkPAs3pM2fGUrfEXWNbL-108" value="Hiển thị danh sách môn học&amp;nbsp;" style="ellipse;whiteSpace=wrap;html=1;" parent="1" vertex="1">
          <mxGeometry x="1720" y="2900" width="140" height="70" as="geometry" />
        </mxCell>
        <mxCell id="PkPAs3pM2fGUrfEXWNbL-112" value="Use" style="endArrow=open;endSize=12;dashed=1;html=1;rounded=0;exitX=0.5;exitY=0;exitDx=0;exitDy=0;" parent="1" source="PkPAs3pM2fGUrfEXWNbL-99" target="PkPAs3pM2fGUrfEXWNbL-107" edge="1">
          <mxGeometry width="160" relative="1" as="geometry">
            <mxPoint x="1220" y="3000" as="sourcePoint" />
            <mxPoint x="1380" y="3000" as="targetPoint" />
          </mxGeometry>
        </mxCell>
        <mxCell id="PkPAs3pM2fGUrfEXWNbL-113" value="Include" style="endArrow=open;endSize=12;dashed=1;html=1;rounded=0;exitX=0;exitY=0.5;exitDx=0;exitDy=0;entryX=1;entryY=0.5;entryDx=0;entryDy=0;" parent="1" source="PkPAs3pM2fGUrfEXWNbL-105" target="PkPAs3pM2fGUrfEXWNbL-99" edge="1">
          <mxGeometry width="160" relative="1" as="geometry">
            <mxPoint x="1360" y="2970" as="sourcePoint" />
            <mxPoint x="1520" y="2970" as="targetPoint" />
          </mxGeometry>
        </mxCell>
        <mxCell id="PkPAs3pM2fGUrfEXWNbL-114" value="Include" style="endArrow=open;endSize=12;dashed=1;html=1;rounded=0;exitX=0;exitY=0.429;exitDx=0;exitDy=0;entryX=1;entryY=0.5;entryDx=0;entryDy=0;exitPerimeter=0;" parent="1" source="PkPAs3pM2fGUrfEXWNbL-104" target="PkPAs3pM2fGUrfEXWNbL-99" edge="1">
          <mxGeometry width="160" relative="1" as="geometry">
            <mxPoint x="1360" y="2970" as="sourcePoint" />
            <mxPoint x="1520" y="2970" as="targetPoint" />
          </mxGeometry>
        </mxCell>
        <mxCell id="PkPAs3pM2fGUrfEXWNbL-119" value="Extend" style="endArrow=open;endSize=12;dashed=1;html=1;rounded=0;exitX=0;exitY=0.5;exitDx=0;exitDy=0;entryX=1;entryY=0.5;entryDx=0;entryDy=0;" parent="1" source="PkPAs3pM2fGUrfEXWNbL-108" target="PkPAs3pM2fGUrfEXWNbL-104" edge="1">
          <mxGeometry width="160" relative="1" as="geometry">
            <mxPoint x="1680" y="2870" as="sourcePoint" />
            <mxPoint x="1840" y="2870" as="targetPoint" />
          </mxGeometry>
        </mxCell>
        <mxCell id="PkPAs3pM2fGUrfEXWNbL-120" value="Extend" style="endArrow=open;endSize=12;dashed=1;html=1;rounded=0;exitX=0.002;exitY=0.588;exitDx=0;exitDy=0;entryX=1;entryY=0.5;entryDx=0;entryDy=0;exitPerimeter=0;" parent="1" source="PkPAs3pM2fGUrfEXWNbL-103" target="PkPAs3pM2fGUrfEXWNbL-108" edge="1">
          <mxGeometry width="160" relative="1" as="geometry">
            <mxPoint x="1680" y="2870" as="sourcePoint" />
            <mxPoint x="1840" y="2870" as="targetPoint" />
          </mxGeometry>
        </mxCell>
        <mxCell id="PkPAs3pM2fGUrfEXWNbL-121" value="Extend" style="endArrow=open;endSize=12;dashed=1;html=1;rounded=0;exitX=0.02;exitY=0.429;exitDx=0;exitDy=0;entryX=1;entryY=0.5;entryDx=0;entryDy=0;exitPerimeter=0;" parent="1" source="PkPAs3pM2fGUrfEXWNbL-102" target="PkPAs3pM2fGUrfEXWNbL-108" edge="1">
          <mxGeometry width="160" relative="1" as="geometry">
            <mxPoint x="1680" y="2870" as="sourcePoint" />
            <mxPoint x="1840" y="2870" as="targetPoint" />
          </mxGeometry>
        </mxCell>
        <mxCell id="PkPAs3pM2fGUrfEXWNbL-123" value="Quản lý đánh giá môn học&amp;nbsp;" style="ellipse;whiteSpace=wrap;html=1;" parent="1" vertex="1">
          <mxGeometry x="1235" y="3150" width="140" height="70" as="geometry" />
        </mxCell>
        <mxCell id="PkPAs3pM2fGUrfEXWNbL-137" style="edgeStyle=orthogonalEdgeStyle;rounded=0;orthogonalLoop=1;jettySize=auto;html=1;entryX=0;entryY=0.5;entryDx=0;entryDy=0;" parent="1" source="PkPAs3pM2fGUrfEXWNbL-124" target="PkPAs3pM2fGUrfEXWNbL-123" edge="1">
          <mxGeometry relative="1" as="geometry" />
        </mxCell>
        <mxCell id="PkPAs3pM2fGUrfEXWNbL-124" value="Admin" style="shape=umlActor;verticalLabelPosition=bottom;verticalAlign=top;html=1;" parent="1" vertex="1">
          <mxGeometry x="1080" y="3155" width="30" height="60" as="geometry" />
        </mxCell>
        <mxCell id="PkPAs3pM2fGUrfEXWNbL-125" value="Tìm kiếm theo môn/lớp/kì" style="ellipse;whiteSpace=wrap;html=1;" parent="1" vertex="1">
          <mxGeometry x="1480" y="3150" width="140" height="70" as="geometry" />
        </mxCell>
        <mxCell id="PkPAs3pM2fGUrfEXWNbL-126" value="Xem danh sách sau khi tìm kiếm&amp;nbsp;" style="ellipse;whiteSpace=wrap;html=1;" parent="1" vertex="1">
          <mxGeometry x="1690" y="3150" width="140" height="70" as="geometry" />
        </mxCell>
        <mxCell id="PkPAs3pM2fGUrfEXWNbL-127" value="Xem chi tiết đánh giá&amp;nbsp;" style="ellipse;whiteSpace=wrap;html=1;" parent="1" vertex="1">
          <mxGeometry x="1928" y="3150" width="140" height="70" as="geometry" />
        </mxCell>
        <mxCell id="PkPAs3pM2fGUrfEXWNbL-128" value="Xuất file nếu cần&amp;nbsp;" style="ellipse;whiteSpace=wrap;html=1;" parent="1" vertex="1">
          <mxGeometry x="2140" y="3145" width="140" height="70" as="geometry" />
        </mxCell>
        <mxCell id="PkPAs3pM2fGUrfEXWNbL-129" value="Đăng nhập" style="ellipse;whiteSpace=wrap;html=1;" parent="1" vertex="1">
          <mxGeometry x="1235" y="3000" width="140" height="70" as="geometry" />
        </mxCell>
        <mxCell id="PkPAs3pM2fGUrfEXWNbL-130" value="Include" style="endArrow=open;endSize=12;dashed=1;html=1;rounded=0;exitX=0.5;exitY=0;exitDx=0;exitDy=0;" parent="1" source="PkPAs3pM2fGUrfEXWNbL-123" target="PkPAs3pM2fGUrfEXWNbL-129" edge="1">
          <mxGeometry width="160" relative="1" as="geometry">
            <mxPoint x="1580" y="3110" as="sourcePoint" />
            <mxPoint x="1740" y="3110" as="targetPoint" />
          </mxGeometry>
        </mxCell>
        <mxCell id="PkPAs3pM2fGUrfEXWNbL-131" value="include" style="endArrow=open;endSize=12;dashed=1;html=1;rounded=0;exitX=0;exitY=0.5;exitDx=0;exitDy=0;entryX=1;entryY=0.5;entryDx=0;entryDy=0;" parent="1" source="PkPAs3pM2fGUrfEXWNbL-126" target="PkPAs3pM2fGUrfEXWNbL-125" edge="1">
          <mxGeometry width="160" relative="1" as="geometry">
            <mxPoint x="1630" y="3100" as="sourcePoint" />
            <mxPoint x="1790" y="3100" as="targetPoint" />
          </mxGeometry>
        </mxCell>
        <mxCell id="PkPAs3pM2fGUrfEXWNbL-132" value="extend&amp;nbsp;" style="endArrow=open;endSize=12;dashed=1;html=1;rounded=0;entryX=1;entryY=0.5;entryDx=0;entryDy=0;" parent="1" source="PkPAs3pM2fGUrfEXWNbL-127" target="PkPAs3pM2fGUrfEXWNbL-126" edge="1">
          <mxGeometry x="-0.0007" width="160" relative="1" as="geometry">
            <mxPoint x="1910" y="3184.58" as="sourcePoint" />
            <mxPoint x="1840" y="3184.58" as="targetPoint" />
            <mxPoint as="offset" />
          </mxGeometry>
        </mxCell>
        <mxCell id="PkPAs3pM2fGUrfEXWNbL-133" value="extend" style="endArrow=open;endSize=12;dashed=1;html=1;rounded=0;entryX=1;entryY=0.5;entryDx=0;entryDy=0;exitX=0.011;exitY=0.543;exitDx=0;exitDy=0;exitPerimeter=0;" parent="1" source="PkPAs3pM2fGUrfEXWNbL-128" target="PkPAs3pM2fGUrfEXWNbL-127" edge="1">
          <mxGeometry width="160" relative="1" as="geometry">
            <mxPoint x="2100" y="3185" as="sourcePoint" />
            <mxPoint x="2060" y="3190" as="targetPoint" />
          </mxGeometry>
        </mxCell>
        <mxCell id="PkPAs3pM2fGUrfEXWNbL-134" value="in" style="endArrow=open;endSize=12;dashed=1;html=1;rounded=0;exitX=0;exitY=0.5;exitDx=0;exitDy=0;entryX=1;entryY=0.5;entryDx=0;entryDy=0;" parent="1" source="PkPAs3pM2fGUrfEXWNbL-125" target="PkPAs3pM2fGUrfEXWNbL-123" edge="1">
          <mxGeometry width="160" relative="1" as="geometry">
            <mxPoint x="1360" y="3120" as="sourcePoint" />
            <mxPoint x="1520" y="3120" as="targetPoint" />
          </mxGeometry>
        </mxCell>
        <mxCell id="PkPAs3pM2fGUrfEXWNbL-135" value="include" style="edgeLabel;html=1;align=center;verticalAlign=middle;resizable=0;points=[];" parent="PkPAs3pM2fGUrfEXWNbL-134" vertex="1" connectable="0">
          <mxGeometry x="-0.2447" y="-1" relative="1" as="geometry">
            <mxPoint as="offset" />
          </mxGeometry>
        </mxCell>
        <mxCell id="PkPAs3pM2fGUrfEXWNbL-138" value="Quản lý báo cáo thống kê" style="ellipse;whiteSpace=wrap;html=1;" parent="1" vertex="1">
          <mxGeometry x="1241" y="3390" width="140" height="70" as="geometry" />
        </mxCell>
        <mxCell id="PkPAs3pM2fGUrfEXWNbL-141" style="edgeStyle=orthogonalEdgeStyle;rounded=0;orthogonalLoop=1;jettySize=auto;html=1;" parent="1" source="PkPAs3pM2fGUrfEXWNbL-140" target="PkPAs3pM2fGUrfEXWNbL-138" edge="1">
          <mxGeometry relative="1" as="geometry" />
        </mxCell>
        <mxCell id="PkPAs3pM2fGUrfEXWNbL-140" value="Admin" style="shape=umlActor;verticalLabelPosition=bottom;verticalAlign=top;html=1;" parent="1" vertex="1">
          <mxGeometry x="1081" y="3395" width="30" height="60" as="geometry" />
        </mxCell>
        <mxCell id="PkPAs3pM2fGUrfEXWNbL-142" value="Đăng nhập" style="ellipse;whiteSpace=wrap;html=1;" parent="1" vertex="1">
          <mxGeometry x="1241" y="3260" width="140" height="70" as="geometry" />
        </mxCell>
        <mxCell id="PkPAs3pM2fGUrfEXWNbL-143" value="Tìm kiếm báo cáo theo Môn/lớp/kì" style="ellipse;whiteSpace=wrap;html=1;" parent="1" vertex="1">
          <mxGeometry x="1480" y="3390" width="140" height="70" as="geometry" />
        </mxCell>
        <mxCell id="PkPAs3pM2fGUrfEXWNbL-144" value="Xuất báo cáo" style="ellipse;whiteSpace=wrap;html=1;" parent="1" vertex="1">
          <mxGeometry x="1720" y="3385" width="140" height="70" as="geometry" />
        </mxCell>
        <mxCell id="PkPAs3pM2fGUrfEXWNbL-145" value="Xem biểu đồ thống kê" style="ellipse;whiteSpace=wrap;html=1;" parent="1" vertex="1">
          <mxGeometry x="1720" y="3300" width="140" height="70" as="geometry" />
        </mxCell>
        <mxCell id="PkPAs3pM2fGUrfEXWNbL-146" value="include" style="endArrow=open;endSize=12;dashed=1;html=1;rounded=0;exitX=0.5;exitY=0;exitDx=0;exitDy=0;" parent="1" source="PkPAs3pM2fGUrfEXWNbL-138" target="PkPAs3pM2fGUrfEXWNbL-142" edge="1">
          <mxGeometry width="160" relative="1" as="geometry">
            <mxPoint x="1440" y="3320" as="sourcePoint" />
            <mxPoint x="1600" y="3320" as="targetPoint" />
          </mxGeometry>
        </mxCell>
        <mxCell id="PkPAs3pM2fGUrfEXWNbL-147" value="Include" style="endArrow=open;endSize=12;dashed=1;html=1;rounded=0;exitX=0;exitY=0.5;exitDx=0;exitDy=0;" parent="1" source="PkPAs3pM2fGUrfEXWNbL-143" target="PkPAs3pM2fGUrfEXWNbL-138" edge="1">
          <mxGeometry width="160" relative="1" as="geometry">
            <mxPoint x="1470" y="3340" as="sourcePoint" />
            <mxPoint x="1630" y="3340" as="targetPoint" />
          </mxGeometry>
        </mxCell>
        <mxCell id="PkPAs3pM2fGUrfEXWNbL-149" value="extend" style="endArrow=open;endSize=12;dashed=1;html=1;rounded=0;exitX=0;exitY=0.5;exitDx=0;exitDy=0;entryX=1;entryY=0.5;entryDx=0;entryDy=0;" parent="1" source="PkPAs3pM2fGUrfEXWNbL-145" target="PkPAs3pM2fGUrfEXWNbL-143" edge="1">
          <mxGeometry width="160" relative="1" as="geometry">
            <mxPoint x="1470" y="3340" as="sourcePoint" />
            <mxPoint x="1630" y="3340" as="targetPoint" />
          </mxGeometry>
        </mxCell>
        <mxCell id="PkPAs3pM2fGUrfEXWNbL-150" value="extend" style="endArrow=open;endSize=12;dashed=1;html=1;rounded=0;entryX=1;entryY=0.5;entryDx=0;entryDy=0;" parent="1" source="PkPAs3pM2fGUrfEXWNbL-144" target="PkPAs3pM2fGUrfEXWNbL-143" edge="1">
          <mxGeometry width="160" relative="1" as="geometry">
            <mxPoint x="1470" y="3340" as="sourcePoint" />
            <mxPoint x="1630" y="3340" as="targetPoint" />
          </mxGeometry>
        </mxCell>
        <mxCell id="xznWHPDb5fXahqg4B3CQ-1" value="Giảng viên" style="shape=umlActor;verticalLabelPosition=bottom;verticalAlign=top;html=1;" vertex="1" parent="1">
          <mxGeometry x="-320" y="1800" width="30" height="60" as="geometry" />
        </mxCell>
        <mxCell id="xznWHPDb5fXahqg4B3CQ-2" value="đăng nhập" style="ellipse;whiteSpace=wrap;html=1;" vertex="1" parent="1">
          <mxGeometry x="-180" y="1670" width="140" height="70" as="geometry" />
        </mxCell>
        <mxCell id="xznWHPDb5fXahqg4B3CQ-3" value="Xem các môn học đang dậy" style="ellipse;whiteSpace=wrap;html=1;" vertex="1" parent="1">
          <mxGeometry x="-180" y="1800" width="140" height="70" as="geometry" />
        </mxCell>
        <mxCell id="xznWHPDb5fXahqg4B3CQ-5" value="Include" style="endArrow=open;endSize=12;dashed=1;html=1;rounded=0;exitX=0.5;exitY=0;exitDx=0;exitDy=0;" edge="1" parent="1" source="xznWHPDb5fXahqg4B3CQ-3" target="xznWHPDb5fXahqg4B3CQ-2">
          <mxGeometry width="160" relative="1" as="geometry">
            <mxPoint x="-80" y="1920" as="sourcePoint" />
            <mxPoint x="80" y="1920" as="targetPoint" />
          </mxGeometry>
        </mxCell>
        <mxCell id="xznWHPDb5fXahqg4B3CQ-6" style="edgeStyle=orthogonalEdgeStyle;rounded=0;orthogonalLoop=1;jettySize=auto;html=1;entryX=0.022;entryY=0.429;entryDx=0;entryDy=0;entryPerimeter=0;" edge="1" parent="1" source="xznWHPDb5fXahqg4B3CQ-1" target="xznWHPDb5fXahqg4B3CQ-3">
          <mxGeometry relative="1" as="geometry" />
        </mxCell>
        <mxCell id="xznWHPDb5fXahqg4B3CQ-7" value="Giảng viên" style="shape=umlActor;verticalLabelPosition=bottom;verticalAlign=top;html=1;" vertex="1" parent="1">
          <mxGeometry x="-320" y="2080" width="30" height="60" as="geometry" />
        </mxCell>
        <mxCell id="xznWHPDb5fXahqg4B3CQ-8" value="đăng nhập" style="ellipse;whiteSpace=wrap;html=1;" vertex="1" parent="1">
          <mxGeometry x="-180" y="1960" width="140" height="70" as="geometry" />
        </mxCell>
        <mxCell id="xznWHPDb5fXahqg4B3CQ-9" value="Xem đánh giá của các môn học đã dậy" style="ellipse;whiteSpace=wrap;html=1;" vertex="1" parent="1">
          <mxGeometry x="-180" y="2080" width="140" height="70" as="geometry" />
        </mxCell>
        <mxCell id="xznWHPDb5fXahqg4B3CQ-10" value="Include" style="endArrow=open;endSize=12;dashed=1;html=1;rounded=0;exitX=0.5;exitY=0;exitDx=0;exitDy=0;" edge="1" parent="1" source="xznWHPDb5fXahqg4B3CQ-9" target="xznWHPDb5fXahqg4B3CQ-8">
          <mxGeometry width="160" relative="1" as="geometry">
            <mxPoint x="-80" y="2200" as="sourcePoint" />
            <mxPoint x="80" y="2200" as="targetPoint" />
          </mxGeometry>
        </mxCell>
        <mxCell id="xznWHPDb5fXahqg4B3CQ-11" style="edgeStyle=orthogonalEdgeStyle;rounded=0;orthogonalLoop=1;jettySize=auto;html=1;entryX=0.022;entryY=0.429;entryDx=0;entryDy=0;entryPerimeter=0;" edge="1" parent="1" source="xznWHPDb5fXahqg4B3CQ-7" target="xznWHPDb5fXahqg4B3CQ-9">
          <mxGeometry relative="1" as="geometry" />
        </mxCell>
        <mxCell id="xznWHPDb5fXahqg4B3CQ-12" value="Giảng viên" style="shape=umlActor;verticalLabelPosition=bottom;verticalAlign=top;html=1;" vertex="1" parent="1">
          <mxGeometry x="-320" y="2360" width="30" height="60" as="geometry" />
        </mxCell>
        <mxCell id="xznWHPDb5fXahqg4B3CQ-13" value="đăng nhập" style="ellipse;whiteSpace=wrap;html=1;" vertex="1" parent="1">
          <mxGeometry x="-180" y="2250" width="140" height="70" as="geometry" />
        </mxCell>
        <mxCell id="xznWHPDb5fXahqg4B3CQ-14" value="Đổi mật Khẩu&amp;nbsp;" style="ellipse;whiteSpace=wrap;html=1;" vertex="1" parent="1">
          <mxGeometry x="-180" y="2360" width="140" height="70" as="geometry" />
        </mxCell>
        <mxCell id="xznWHPDb5fXahqg4B3CQ-15" value="Include" style="endArrow=open;endSize=12;dashed=1;html=1;rounded=0;exitX=0.5;exitY=0;exitDx=0;exitDy=0;" edge="1" parent="1" source="xznWHPDb5fXahqg4B3CQ-14" target="xznWHPDb5fXahqg4B3CQ-13">
          <mxGeometry width="160" relative="1" as="geometry">
            <mxPoint x="-80" y="2480" as="sourcePoint" />
            <mxPoint x="80" y="2480" as="targetPoint" />
          </mxGeometry>
        </mxCell>
        <mxCell id="xznWHPDb5fXahqg4B3CQ-16" style="edgeStyle=orthogonalEdgeStyle;rounded=0;orthogonalLoop=1;jettySize=auto;html=1;entryX=0.022;entryY=0.429;entryDx=0;entryDy=0;entryPerimeter=0;" edge="1" parent="1" source="xznWHPDb5fXahqg4B3CQ-12" target="xznWHPDb5fXahqg4B3CQ-14">
          <mxGeometry relative="1" as="geometry" />
        </mxCell>
        <mxCell id="xznWHPDb5fXahqg4B3CQ-33" value="" style="edgeStyle=orthogonalEdgeStyle;rounded=0;orthogonalLoop=1;jettySize=auto;html=1;" edge="1" parent="1" source="xznWHPDb5fXahqg4B3CQ-23" target="xznWHPDb5fXahqg4B3CQ-3">
          <mxGeometry relative="1" as="geometry" />
        </mxCell>
        <mxCell id="xznWHPDb5fXahqg4B3CQ-23" value="Tìm kiếm theo kỳ/lớp/môn&amp;nbsp;" style="ellipse;whiteSpace=wrap;html=1;" vertex="1" parent="1">
          <mxGeometry x="30" y="1800" width="140" height="70" as="geometry" />
        </mxCell>
        <mxCell id="xznWHPDb5fXahqg4B3CQ-24" value="Xem thông tin môn học" style="ellipse;whiteSpace=wrap;html=1;" vertex="1" parent="1">
          <mxGeometry x="250" y="1800" width="140" height="70" as="geometry" />
        </mxCell>
        <mxCell id="xznWHPDb5fXahqg4B3CQ-25" value="Phàn hồi bình luận nếu có" style="ellipse;whiteSpace=wrap;html=1;" vertex="1" parent="1">
          <mxGeometry x="450" y="1800" width="140" height="70" as="geometry" />
        </mxCell>
        <mxCell id="xznWHPDb5fXahqg4B3CQ-26" value="Extend" style="endArrow=open;endSize=12;dashed=1;html=1;rounded=0;exitX=0;exitY=0.5;exitDx=0;exitDy=0;entryX=1;entryY=0.5;entryDx=0;entryDy=0;" edge="1" parent="1" source="xznWHPDb5fXahqg4B3CQ-23" target="xznWHPDb5fXahqg4B3CQ-3">
          <mxGeometry width="160" relative="1" as="geometry">
            <mxPoint x="-90" y="1910" as="sourcePoint" />
            <mxPoint x="70" y="1910" as="targetPoint" />
          </mxGeometry>
        </mxCell>
        <mxCell id="xznWHPDb5fXahqg4B3CQ-29" value="Extend" style="endArrow=open;endSize=12;dashed=1;html=1;rounded=0;exitX=0;exitY=0.5;exitDx=0;exitDy=0;entryX=1;entryY=0.5;entryDx=0;entryDy=0;" edge="1" parent="1" source="xznWHPDb5fXahqg4B3CQ-24" target="xznWHPDb5fXahqg4B3CQ-23">
          <mxGeometry width="160" relative="1" as="geometry">
            <mxPoint x="190" y="1980" as="sourcePoint" />
            <mxPoint x="350" y="1980" as="targetPoint" />
          </mxGeometry>
        </mxCell>
        <mxCell id="xznWHPDb5fXahqg4B3CQ-31" value="Extend" style="endArrow=open;endSize=12;dashed=1;html=1;rounded=0;exitX=0;exitY=0.5;exitDx=0;exitDy=0;entryX=1;entryY=0.5;entryDx=0;entryDy=0;" edge="1" parent="1" source="xznWHPDb5fXahqg4B3CQ-25" target="xznWHPDb5fXahqg4B3CQ-24">
          <mxGeometry width="160" relative="1" as="geometry">
            <mxPoint x="240" y="1840" as="sourcePoint" />
            <mxPoint x="180" y="1845" as="targetPoint" />
          </mxGeometry>
        </mxCell>
        <mxCell id="xznWHPDb5fXahqg4B3CQ-32" value="Hiển thị danh sách các môn đang dậy" style="ellipse;whiteSpace=wrap;html=1;" vertex="1" parent="1">
          <mxGeometry x="30" y="1890" width="140" height="70" as="geometry" />
        </mxCell>
        <mxCell id="xznWHPDb5fXahqg4B3CQ-34" value="Extend" style="endArrow=open;endSize=12;dashed=1;html=1;rounded=0;exitX=-0.011;exitY=0.368;exitDx=0;exitDy=0;entryX=1;entryY=0.5;entryDx=0;entryDy=0;exitPerimeter=0;" edge="1" parent="1" source="xznWHPDb5fXahqg4B3CQ-32" target="xznWHPDb5fXahqg4B3CQ-3">
          <mxGeometry width="160" relative="1" as="geometry">
            <mxPoint x="-90" y="1910" as="sourcePoint" />
            <mxPoint x="70" y="1910" as="targetPoint" />
          </mxGeometry>
        </mxCell>
        <mxCell id="xznWHPDb5fXahqg4B3CQ-37" value="Tìm kiếm theo kỳ/lớp/môn&amp;nbsp;" style="ellipse;whiteSpace=wrap;html=1;" vertex="1" parent="1">
          <mxGeometry x="30" y="2080" width="140" height="70" as="geometry" />
        </mxCell>
        <mxCell id="xznWHPDb5fXahqg4B3CQ-38" value="Xem đánh giá của môn học" style="ellipse;whiteSpace=wrap;html=1;" vertex="1" parent="1">
          <mxGeometry x="250" y="2080" width="140" height="70" as="geometry" />
        </mxCell>
        <mxCell id="xznWHPDb5fXahqg4B3CQ-39" value="Phàn hồi bình luận nếu có" style="ellipse;whiteSpace=wrap;html=1;" vertex="1" parent="1">
          <mxGeometry x="450" y="2080" width="140" height="70" as="geometry" />
        </mxCell>
        <mxCell id="xznWHPDb5fXahqg4B3CQ-40" value="Extend" style="endArrow=open;endSize=12;dashed=1;html=1;rounded=0;exitX=0;exitY=0.5;exitDx=0;exitDy=0;entryX=1;entryY=0.5;entryDx=0;entryDy=0;" edge="1" parent="1" source="xznWHPDb5fXahqg4B3CQ-37">
          <mxGeometry width="160" relative="1" as="geometry">
            <mxPoint x="-90" y="2190" as="sourcePoint" />
            <mxPoint x="-40" y="2115" as="targetPoint" />
          </mxGeometry>
        </mxCell>
        <mxCell id="xznWHPDb5fXahqg4B3CQ-41" value="Extend" style="endArrow=open;endSize=12;dashed=1;html=1;rounded=0;exitX=0;exitY=0.5;exitDx=0;exitDy=0;entryX=1;entryY=0.5;entryDx=0;entryDy=0;" edge="1" parent="1" source="xznWHPDb5fXahqg4B3CQ-38" target="xznWHPDb5fXahqg4B3CQ-37">
          <mxGeometry width="160" relative="1" as="geometry">
            <mxPoint x="190" y="2260" as="sourcePoint" />
            <mxPoint x="350" y="2260" as="targetPoint" />
          </mxGeometry>
        </mxCell>
        <mxCell id="xznWHPDb5fXahqg4B3CQ-42" value="Extend" style="endArrow=open;endSize=12;dashed=1;html=1;rounded=0;exitX=0;exitY=0.5;exitDx=0;exitDy=0;entryX=1;entryY=0.5;entryDx=0;entryDy=0;" edge="1" parent="1" source="xznWHPDb5fXahqg4B3CQ-39" target="xznWHPDb5fXahqg4B3CQ-38">
          <mxGeometry width="160" relative="1" as="geometry">
            <mxPoint x="240" y="2120" as="sourcePoint" />
            <mxPoint x="180" y="2125" as="targetPoint" />
          </mxGeometry>
        </mxCell>
        <mxCell id="xznWHPDb5fXahqg4B3CQ-43" value="Hiển thị danh sách các môn đã dậy" style="ellipse;whiteSpace=wrap;html=1;" vertex="1" parent="1">
          <mxGeometry x="30" y="2170" width="140" height="70" as="geometry" />
        </mxCell>
        <mxCell id="xznWHPDb5fXahqg4B3CQ-44" value="Extend" style="endArrow=open;endSize=12;dashed=1;html=1;rounded=0;exitX=-0.011;exitY=0.368;exitDx=0;exitDy=0;entryX=1;entryY=0.5;entryDx=0;entryDy=0;exitPerimeter=0;" edge="1" parent="1" source="xznWHPDb5fXahqg4B3CQ-43">
          <mxGeometry width="160" relative="1" as="geometry">
            <mxPoint x="-90" y="2190" as="sourcePoint" />
            <mxPoint x="-40" y="2115" as="targetPoint" />
          </mxGeometry>
        </mxCell>
        <mxCell id="xznWHPDb5fXahqg4B3CQ-46" value="Extend" style="endArrow=open;endSize=12;dashed=1;html=1;rounded=0;exitX=0;exitY=0.5;exitDx=0;exitDy=0;entryX=1;entryY=0.5;entryDx=0;entryDy=0;" edge="1" parent="1" source="xznWHPDb5fXahqg4B3CQ-38" target="xznWHPDb5fXahqg4B3CQ-43">
          <mxGeometry width="160" relative="1" as="geometry">
            <mxPoint x="190" y="2260" as="sourcePoint" />
            <mxPoint x="350" y="2260" as="targetPoint" />
          </mxGeometry>
        </mxCell>
        <mxCell id="xznWHPDb5fXahqg4B3CQ-47" value="Đổi khi nhớ mật khẩu cũ" style="ellipse;whiteSpace=wrap;html=1;" vertex="1" parent="1">
          <mxGeometry x="50" y="2360" width="140" height="70" as="geometry" />
        </mxCell>
        <mxCell id="xznWHPDb5fXahqg4B3CQ-48" value="Đổi khi quên mật khẩu" style="ellipse;whiteSpace=wrap;html=1;" vertex="1" parent="1">
          <mxGeometry x="50" y="2460" width="140" height="70" as="geometry" />
        </mxCell>
        <mxCell id="xznWHPDb5fXahqg4B3CQ-49" value="Gửi mã đến gmail" style="ellipse;whiteSpace=wrap;html=1;" vertex="1" parent="1">
          <mxGeometry x="240" y="2460" width="140" height="70" as="geometry" />
        </mxCell>
        <mxCell id="xznWHPDb5fXahqg4B3CQ-50" value="Nhập mã xác thực" style="ellipse;whiteSpace=wrap;html=1;" vertex="1" parent="1">
          <mxGeometry x="240" y="2600" width="140" height="70" as="geometry" />
        </mxCell>
        <mxCell id="xznWHPDb5fXahqg4B3CQ-51" value="Include" style="endArrow=open;endSize=12;dashed=1;html=1;rounded=0;entryX=0.5;entryY=1;entryDx=0;entryDy=0;exitX=0.5;exitY=0;exitDx=0;exitDy=0;" edge="1" parent="1" source="xznWHPDb5fXahqg4B3CQ-50" target="xznWHPDb5fXahqg4B3CQ-49">
          <mxGeometry width="160" relative="1" as="geometry">
            <mxPoint x="20" y="2570" as="sourcePoint" />
            <mxPoint x="180" y="2570" as="targetPoint" />
          </mxGeometry>
        </mxCell>
        <mxCell id="xznWHPDb5fXahqg4B3CQ-52" value="include" style="endArrow=open;endSize=12;dashed=1;html=1;rounded=0;exitX=0;exitY=0.5;exitDx=0;exitDy=0;entryX=1;entryY=0.5;entryDx=0;entryDy=0;" edge="1" parent="1" source="xznWHPDb5fXahqg4B3CQ-49" target="xznWHPDb5fXahqg4B3CQ-48">
          <mxGeometry width="160" relative="1" as="geometry">
            <mxPoint x="90" y="2610" as="sourcePoint" />
            <mxPoint x="250" y="2610" as="targetPoint" />
            <mxPoint as="offset" />
          </mxGeometry>
        </mxCell>
        <mxCell id="xznWHPDb5fXahqg4B3CQ-53" value="extend" style="endArrow=open;endSize=12;dashed=1;html=1;rounded=0;exitX=0;exitY=0.5;exitDx=0;exitDy=0;" edge="1" parent="1" source="xznWHPDb5fXahqg4B3CQ-47" target="xznWHPDb5fXahqg4B3CQ-14">
          <mxGeometry width="160" relative="1" as="geometry">
            <mxPoint x="-140" y="2510" as="sourcePoint" />
            <mxPoint x="20" y="2510" as="targetPoint" />
          </mxGeometry>
        </mxCell>
        <mxCell id="xznWHPDb5fXahqg4B3CQ-54" value="extend" style="endArrow=open;endSize=12;dashed=1;html=1;rounded=0;" edge="1" parent="1" source="xznWHPDb5fXahqg4B3CQ-48">
          <mxGeometry width="160" relative="1" as="geometry">
            <mxPoint x="-140" y="2510" as="sourcePoint" />
            <mxPoint x="-40" y="2400" as="targetPoint" />
          </mxGeometry>
        </mxCell>
        <mxCell id="xznWHPDb5fXahqg4B3CQ-61" value="Quên mật khẩu" style="ellipse;whiteSpace=wrap;html=1;" vertex="1" parent="1">
          <mxGeometry x="-190" y="2705" width="140" height="70" as="geometry" />
        </mxCell>
        <mxCell id="xznWHPDb5fXahqg4B3CQ-62" value="Gửi mã đến gmail" style="ellipse;whiteSpace=wrap;html=1;" vertex="1" parent="1">
          <mxGeometry x="260" y="2705" width="140" height="70" as="geometry" />
        </mxCell>
        <mxCell id="xznWHPDb5fXahqg4B3CQ-63" value="Nhập mã xác thực" style="ellipse;whiteSpace=wrap;html=1;" vertex="1" parent="1">
          <mxGeometry x="480" y="2705" width="140" height="70" as="geometry" />
        </mxCell>
        <mxCell id="xznWHPDb5fXahqg4B3CQ-64" value="Include" style="endArrow=open;endSize=12;dashed=1;html=1;rounded=0;entryX=1;entryY=0.5;entryDx=0;entryDy=0;exitX=0;exitY=0.5;exitDx=0;exitDy=0;" edge="1" parent="1" source="xznWHPDb5fXahqg4B3CQ-62" target="xznWHPDb5fXahqg4B3CQ-68">
          <mxGeometry width="160" relative="1" as="geometry">
            <mxPoint x="720" y="2735" as="sourcePoint" />
            <mxPoint x="370" y="2745" as="targetPoint" />
          </mxGeometry>
        </mxCell>
        <mxCell id="xznWHPDb5fXahqg4B3CQ-65" value="include" style="endArrow=open;endSize=12;dashed=1;html=1;rounded=0;exitX=0;exitY=0.5;exitDx=0;exitDy=0;entryX=1;entryY=0.5;entryDx=0;entryDy=0;" edge="1" parent="1" source="xznWHPDb5fXahqg4B3CQ-68" target="xznWHPDb5fXahqg4B3CQ-61">
          <mxGeometry width="160" relative="1" as="geometry">
            <mxPoint x="80" y="2960" as="sourcePoint" />
            <mxPoint x="240" y="2960" as="targetPoint" />
            <mxPoint as="offset" />
          </mxGeometry>
        </mxCell>
        <mxCell id="xznWHPDb5fXahqg4B3CQ-68" value="Nhập gmail" style="ellipse;whiteSpace=wrap;html=1;" vertex="1" parent="1">
          <mxGeometry x="50" y="2705" width="140" height="70" as="geometry" />
        </mxCell>
        <mxCell id="xznWHPDb5fXahqg4B3CQ-69" value="Include" style="endArrow=open;endSize=12;dashed=1;html=1;rounded=0;exitX=0;exitY=0.5;exitDx=0;exitDy=0;" edge="1" parent="1" source="xznWHPDb5fXahqg4B3CQ-63">
          <mxGeometry width="160" relative="1" as="geometry">
            <mxPoint x="270" y="2750" as="sourcePoint" />
            <mxPoint x="400" y="2740" as="targetPoint" />
          </mxGeometry>
        </mxCell>
        <mxCell id="xznWHPDb5fXahqg4B3CQ-70" value="Đổi mật khẩu mới" style="ellipse;whiteSpace=wrap;html=1;" vertex="1" parent="1">
          <mxGeometry x="480" y="2820" width="140" height="70" as="geometry" />
        </mxCell>
        <mxCell id="xznWHPDb5fXahqg4B3CQ-71" value="Include" style="endArrow=open;endSize=12;dashed=1;html=1;rounded=0;exitX=0.5;exitY=0;exitDx=0;exitDy=0;entryX=0.5;entryY=1;entryDx=0;entryDy=0;" edge="1" parent="1" source="xznWHPDb5fXahqg4B3CQ-70" target="xznWHPDb5fXahqg4B3CQ-63">
          <mxGeometry width="160" relative="1" as="geometry">
            <mxPoint x="490" y="2750" as="sourcePoint" />
            <mxPoint x="410" y="2750" as="targetPoint" />
          </mxGeometry>
        </mxCell>
        <mxCell id="xznWHPDb5fXahqg4B3CQ-72" value="Đổi mật khẩu mới" style="ellipse;whiteSpace=wrap;html=1;" vertex="1" parent="1">
          <mxGeometry x="450" y="2590" width="140" height="70" as="geometry" />
        </mxCell>
        <mxCell id="xznWHPDb5fXahqg4B3CQ-73" value="Include" style="endArrow=open;endSize=12;dashed=1;html=1;rounded=0;entryX=1;entryY=0.5;entryDx=0;entryDy=0;exitX=0.033;exitY=0.635;exitDx=0;exitDy=0;exitPerimeter=0;" edge="1" parent="1" source="xznWHPDb5fXahqg4B3CQ-72" target="xznWHPDb5fXahqg4B3CQ-50">
          <mxGeometry width="160" relative="1" as="geometry">
            <mxPoint x="20" y="2570" as="sourcePoint" />
            <mxPoint x="180" y="2570" as="targetPoint" />
          </mxGeometry>
        </mxCell>
        <mxCell id="xznWHPDb5fXahqg4B3CQ-74" style="edgeStyle=orthogonalEdgeStyle;rounded=0;orthogonalLoop=1;jettySize=auto;html=1;entryX=-0.004;entryY=0.643;entryDx=0;entryDy=0;entryPerimeter=0;" edge="1" parent="1" source="xznWHPDb5fXahqg4B3CQ-12" target="xznWHPDb5fXahqg4B3CQ-61">
          <mxGeometry relative="1" as="geometry" />
        </mxCell>
        <mxCell id="xznWHPDb5fXahqg4B3CQ-95" style="edgeStyle=orthogonalEdgeStyle;rounded=0;orthogonalLoop=1;jettySize=auto;html=1;entryX=0;entryY=0.5;entryDx=0;entryDy=0;" edge="1" parent="1" source="xznWHPDb5fXahqg4B3CQ-75" target="xznWHPDb5fXahqg4B3CQ-76">
          <mxGeometry relative="1" as="geometry" />
        </mxCell>
        <mxCell id="xznWHPDb5fXahqg4B3CQ-75" value="Sinh viên" style="shape=umlActor;verticalLabelPosition=bottom;verticalAlign=top;html=1;" vertex="1" parent="1">
          <mxGeometry x="-1830" y="1794" width="30" height="60" as="geometry" />
        </mxCell>
        <mxCell id="xznWHPDb5fXahqg4B3CQ-76" value="Đánh giá môn học" style="ellipse;whiteSpace=wrap;html=1;" vertex="1" parent="1">
          <mxGeometry x="-1650" y="1790" width="140" height="70" as="geometry" />
        </mxCell>
        <mxCell id="xznWHPDb5fXahqg4B3CQ-79" value="Đăng nhập" style="ellipse;whiteSpace=wrap;html=1;" vertex="1" parent="1">
          <mxGeometry x="-1650" y="1670" width="140" height="70" as="geometry" />
        </mxCell>
        <mxCell id="xznWHPDb5fXahqg4B3CQ-80" value="Xem danh sách môn học cần đánh giá&amp;nbsp;&amp;nbsp;" style="ellipse;whiteSpace=wrap;html=1;" vertex="1" parent="1">
          <mxGeometry x="-1440" y="1790" width="140" height="70" as="geometry" />
        </mxCell>
        <mxCell id="xznWHPDb5fXahqg4B3CQ-81" value="Lọc theo kỳ/ lớp /môn" style="ellipse;whiteSpace=wrap;html=1;" vertex="1" parent="1">
          <mxGeometry x="-1220" y="1650" width="140" height="70" as="geometry" />
        </mxCell>
        <mxCell id="xznWHPDb5fXahqg4B3CQ-82" value="Chọn môn cần đánh giá" style="ellipse;whiteSpace=wrap;html=1;" vertex="1" parent="1">
          <mxGeometry x="-1220" y="1789" width="140" height="70" as="geometry" />
        </mxCell>
        <mxCell id="xznWHPDb5fXahqg4B3CQ-83" value="Trả lời các câu hỏi đánh giá&amp;nbsp;" style="ellipse;whiteSpace=wrap;html=1;" vertex="1" parent="1">
          <mxGeometry x="-980" y="1789" width="140" height="70" as="geometry" />
        </mxCell>
        <mxCell id="xznWHPDb5fXahqg4B3CQ-84" value="Gửi đánh giá&amp;nbsp;" style="ellipse;whiteSpace=wrap;html=1;" vertex="1" parent="1">
          <mxGeometry x="-980" y="1930" width="140" height="70" as="geometry" />
        </mxCell>
        <mxCell id="xznWHPDb5fXahqg4B3CQ-87" value="include" style="endArrow=open;endSize=12;dashed=1;html=1;rounded=0;entryX=1;entryY=0.5;entryDx=0;entryDy=0;" edge="1" parent="1" source="xznWHPDb5fXahqg4B3CQ-82" target="xznWHPDb5fXahqg4B3CQ-80">
          <mxGeometry width="160" relative="1" as="geometry">
            <mxPoint x="-1170" y="1970" as="sourcePoint" />
            <mxPoint x="-1010" y="1970" as="targetPoint" />
          </mxGeometry>
        </mxCell>
        <mxCell id="xznWHPDb5fXahqg4B3CQ-89" value="extend" style="endArrow=open;endSize=12;dashed=1;html=1;rounded=0;entryX=0;entryY=0.5;entryDx=0;entryDy=0;" edge="1" parent="1" target="xznWHPDb5fXahqg4B3CQ-81">
          <mxGeometry width="160" relative="1" as="geometry">
            <mxPoint x="-1300" y="1820" as="sourcePoint" />
            <mxPoint x="-1010" y="1970" as="targetPoint" />
          </mxGeometry>
        </mxCell>
        <mxCell id="xznWHPDb5fXahqg4B3CQ-90" value="include" style="endArrow=open;endSize=12;dashed=1;html=1;rounded=0;exitX=0;exitY=0.5;exitDx=0;exitDy=0;entryX=1;entryY=0.5;entryDx=0;entryDy=0;" edge="1" parent="1" source="xznWHPDb5fXahqg4B3CQ-83" target="xznWHPDb5fXahqg4B3CQ-82">
          <mxGeometry width="160" relative="1" as="geometry">
            <mxPoint x="-1120" y="1960" as="sourcePoint" />
            <mxPoint x="-960" y="1960" as="targetPoint" />
          </mxGeometry>
        </mxCell>
        <mxCell id="xznWHPDb5fXahqg4B3CQ-91" value="include" style="endArrow=open;endSize=12;dashed=1;html=1;rounded=0;exitX=0.5;exitY=1;exitDx=0;exitDy=0;" edge="1" parent="1" source="xznWHPDb5fXahqg4B3CQ-83" target="xznWHPDb5fXahqg4B3CQ-84">
          <mxGeometry width="160" relative="1" as="geometry">
            <mxPoint x="-720" y="1970" as="sourcePoint" />
            <mxPoint x="-740" y="1930" as="targetPoint" />
          </mxGeometry>
        </mxCell>
        <mxCell id="xznWHPDb5fXahqg4B3CQ-92" value="extend&amp;nbsp;" style="endArrow=open;endSize=12;dashed=1;html=1;rounded=0;exitX=0.457;exitY=0.974;exitDx=0;exitDy=0;exitPerimeter=0;entryX=0.445;entryY=0.024;entryDx=0;entryDy=0;entryPerimeter=0;" edge="1" parent="1" source="xznWHPDb5fXahqg4B3CQ-81" target="xznWHPDb5fXahqg4B3CQ-82">
          <mxGeometry width="160" relative="1" as="geometry">
            <mxPoint x="-1050" y="1720" as="sourcePoint" />
            <mxPoint x="-1100" y="1750" as="targetPoint" />
          </mxGeometry>
        </mxCell>
        <mxCell id="xznWHPDb5fXahqg4B3CQ-93" value="Include" style="endArrow=open;endSize=12;dashed=1;html=1;rounded=0;exitX=0;exitY=0.5;exitDx=0;exitDy=0;entryX=1;entryY=0.5;entryDx=0;entryDy=0;" edge="1" parent="1" source="xznWHPDb5fXahqg4B3CQ-80" target="xznWHPDb5fXahqg4B3CQ-76">
          <mxGeometry width="160" relative="1" as="geometry">
            <mxPoint x="-1500" y="1930" as="sourcePoint" />
            <mxPoint x="-1340" y="1930" as="targetPoint" />
          </mxGeometry>
        </mxCell>
        <mxCell id="xznWHPDb5fXahqg4B3CQ-94" value="Include" style="endArrow=open;endSize=12;dashed=1;html=1;rounded=0;exitX=0.5;exitY=0;exitDx=0;exitDy=0;" edge="1" parent="1" source="xznWHPDb5fXahqg4B3CQ-76" target="xznWHPDb5fXahqg4B3CQ-79">
          <mxGeometry width="160" relative="1" as="geometry">
            <mxPoint x="-1570" y="1990" as="sourcePoint" />
            <mxPoint x="-1410" y="1990" as="targetPoint" />
          </mxGeometry>
        </mxCell>
        <mxCell id="xznWHPDb5fXahqg4B3CQ-99" value="Bình luận về môn cần đánh giá&amp;nbsp;" style="ellipse;whiteSpace=wrap;html=1;" vertex="1" parent="1">
          <mxGeometry x="-980" y="1654" width="140" height="70" as="geometry" />
        </mxCell>
        <mxCell id="xznWHPDb5fXahqg4B3CQ-100" value="Gửi bình luận" style="ellipse;whiteSpace=wrap;html=1;" vertex="1" parent="1">
          <mxGeometry x="-740" y="1654" width="140" height="70" as="geometry" />
        </mxCell>
        <mxCell id="xznWHPDb5fXahqg4B3CQ-101" value="extend" style="endArrow=open;endSize=12;dashed=1;html=1;rounded=0;exitX=0.5;exitY=1;exitDx=0;exitDy=0;" edge="1" parent="1" source="xznWHPDb5fXahqg4B3CQ-99" target="xznWHPDb5fXahqg4B3CQ-83">
          <mxGeometry width="160" relative="1" as="geometry">
            <mxPoint x="-760" y="1810" as="sourcePoint" />
            <mxPoint x="-600" y="1810" as="targetPoint" />
          </mxGeometry>
        </mxCell>
        <mxCell id="xznWHPDb5fXahqg4B3CQ-102" value="Include" style="endArrow=open;endSize=12;dashed=1;html=1;rounded=0;exitX=0;exitY=0.5;exitDx=0;exitDy=0;" edge="1" parent="1" source="xznWHPDb5fXahqg4B3CQ-100" target="xznWHPDb5fXahqg4B3CQ-99">
          <mxGeometry width="160" relative="1" as="geometry">
            <mxPoint x="-770" y="1800" as="sourcePoint" />
            <mxPoint x="-610" y="1800" as="targetPoint" />
          </mxGeometry>
        </mxCell>
        <mxCell id="xznWHPDb5fXahqg4B3CQ-114" style="edgeStyle=orthogonalEdgeStyle;rounded=0;orthogonalLoop=1;jettySize=auto;html=1;entryX=0;entryY=0.5;entryDx=0;entryDy=0;" edge="1" parent="1" source="xznWHPDb5fXahqg4B3CQ-103" target="xznWHPDb5fXahqg4B3CQ-104">
          <mxGeometry relative="1" as="geometry" />
        </mxCell>
        <mxCell id="xznWHPDb5fXahqg4B3CQ-103" value="Sinh viên" style="shape=umlActor;verticalLabelPosition=bottom;verticalAlign=top;html=1;" vertex="1" parent="1">
          <mxGeometry x="-1840" y="2235" width="30" height="60" as="geometry" />
        </mxCell>
        <mxCell id="xznWHPDb5fXahqg4B3CQ-104" value="Xem lịch sử đánh giá" style="ellipse;whiteSpace=wrap;html=1;" vertex="1" parent="1">
          <mxGeometry x="-1630" y="2230" width="140" height="70" as="geometry" />
        </mxCell>
        <mxCell id="xznWHPDb5fXahqg4B3CQ-105" value="Đăng nhập" style="ellipse;whiteSpace=wrap;html=1;" vertex="1" parent="1">
          <mxGeometry x="-1630" y="2105" width="140" height="70" as="geometry" />
        </mxCell>
        <mxCell id="xznWHPDb5fXahqg4B3CQ-106" value="Xem danh sách các môn đã đánh giá&amp;nbsp;" style="ellipse;whiteSpace=wrap;html=1;" vertex="1" parent="1">
          <mxGeometry x="-1370" y="2300" width="140" height="70" as="geometry" />
        </mxCell>
        <mxCell id="xznWHPDb5fXahqg4B3CQ-107" value="Lọc theo lớp /kì/ năm" style="ellipse;whiteSpace=wrap;html=1;" vertex="1" parent="1">
          <mxGeometry x="-1370" y="2175" width="140" height="70" as="geometry" />
        </mxCell>
        <mxCell id="xznWHPDb5fXahqg4B3CQ-108" value="Xem chi thông tin chi tiết" style="ellipse;whiteSpace=wrap;html=1;" vertex="1" parent="1">
          <mxGeometry x="-1100" y="2225" width="140" height="70" as="geometry" />
        </mxCell>
        <mxCell id="xznWHPDb5fXahqg4B3CQ-109" value="Include" style="endArrow=open;endSize=12;dashed=1;html=1;rounded=0;exitX=0.5;exitY=0;exitDx=0;exitDy=0;entryX=0.5;entryY=1;entryDx=0;entryDy=0;" edge="1" parent="1" source="xznWHPDb5fXahqg4B3CQ-104" target="xznWHPDb5fXahqg4B3CQ-105">
          <mxGeometry x="0.0031" width="160" relative="1" as="geometry">
            <mxPoint x="-1550" y="2370" as="sourcePoint" />
            <mxPoint x="-1390" y="2370" as="targetPoint" />
            <mxPoint as="offset" />
          </mxGeometry>
        </mxCell>
        <mxCell id="xznWHPDb5fXahqg4B3CQ-110" value="Include" style="endArrow=open;endSize=12;dashed=1;html=1;rounded=0;exitX=0;exitY=0.5;exitDx=0;exitDy=0;entryX=1;entryY=0.5;entryDx=0;entryDy=0;" edge="1" parent="1" source="xznWHPDb5fXahqg4B3CQ-107" target="xznWHPDb5fXahqg4B3CQ-104">
          <mxGeometry x="0.0048" width="160" relative="1" as="geometry">
            <mxPoint x="-1590" y="2370" as="sourcePoint" />
            <mxPoint x="-1430" y="2370" as="targetPoint" />
            <mxPoint as="offset" />
          </mxGeometry>
        </mxCell>
        <mxCell id="xznWHPDb5fXahqg4B3CQ-111" value="Include" style="endArrow=open;endSize=12;dashed=1;html=1;rounded=0;exitX=0;exitY=0.5;exitDx=0;exitDy=0;entryX=1;entryY=0.5;entryDx=0;entryDy=0;" edge="1" parent="1" source="xznWHPDb5fXahqg4B3CQ-106" target="xznWHPDb5fXahqg4B3CQ-104">
          <mxGeometry width="160" relative="1" as="geometry">
            <mxPoint x="-1360" y="2220" as="sourcePoint" />
            <mxPoint x="-1480" y="2275" as="targetPoint" />
          </mxGeometry>
        </mxCell>
        <mxCell id="xznWHPDb5fXahqg4B3CQ-112" value="extend" style="endArrow=open;endSize=12;dashed=1;html=1;rounded=0;exitX=1;exitY=0.5;exitDx=0;exitDy=0;entryX=0.036;entryY=0.357;entryDx=0;entryDy=0;entryPerimeter=0;" edge="1" parent="1" source="xznWHPDb5fXahqg4B3CQ-107" target="xznWHPDb5fXahqg4B3CQ-108">
          <mxGeometry width="160" relative="1" as="geometry">
            <mxPoint x="-1150" y="2190" as="sourcePoint" />
            <mxPoint x="-1070" y="2190" as="targetPoint" />
          </mxGeometry>
        </mxCell>
        <mxCell id="xznWHPDb5fXahqg4B3CQ-113" value="extend" style="endArrow=open;endSize=12;dashed=1;html=1;rounded=0;exitX=1;exitY=0.5;exitDx=0;exitDy=0;" edge="1" parent="1" source="xznWHPDb5fXahqg4B3CQ-106" target="xznWHPDb5fXahqg4B3CQ-108">
          <mxGeometry width="160" relative="1" as="geometry">
            <mxPoint x="-1120" y="2285" as="sourcePoint" />
            <mxPoint x="-1090" y="2380" as="targetPoint" />
          </mxGeometry>
        </mxCell>
        <mxCell id="xznWHPDb5fXahqg4B3CQ-128" style="edgeStyle=orthogonalEdgeStyle;rounded=0;orthogonalLoop=1;jettySize=auto;html=1;" edge="1" parent="1" source="xznWHPDb5fXahqg4B3CQ-118" target="xznWHPDb5fXahqg4B3CQ-119">
          <mxGeometry relative="1" as="geometry" />
        </mxCell>
        <mxCell id="xznWHPDb5fXahqg4B3CQ-118" value="Sinh Viên" style="shape=umlActor;verticalLabelPosition=bottom;verticalAlign=top;html=1;" vertex="1" parent="1">
          <mxGeometry x="-1840" y="2575" width="30" height="60" as="geometry" />
        </mxCell>
        <mxCell id="xznWHPDb5fXahqg4B3CQ-119" value="Xem lịch học" style="ellipse;whiteSpace=wrap;html=1;" vertex="1" parent="1">
          <mxGeometry x="-1630" y="2570" width="140" height="70" as="geometry" />
        </mxCell>
        <mxCell id="xznWHPDb5fXahqg4B3CQ-120" value="Xem lịch học trong tuần dưới dạng bảng lịch" style="ellipse;whiteSpace=wrap;html=1;" vertex="1" parent="1">
          <mxGeometry x="-1410" y="2510" width="140" height="70" as="geometry" />
        </mxCell>
        <mxCell id="xznWHPDb5fXahqg4B3CQ-121" value="Tìm kiếm theo tên môn/ngành/lớp" style="ellipse;whiteSpace=wrap;html=1;" vertex="1" parent="1">
          <mxGeometry x="-1410" y="2610" width="140" height="70" as="geometry" />
        </mxCell>
        <mxCell id="xznWHPDb5fXahqg4B3CQ-122" value="Xem thông tin chi tiết về lớp,tầng,tòa" style="ellipse;whiteSpace=wrap;html=1;" vertex="1" parent="1">
          <mxGeometry x="-1190" y="2560" width="140" height="70" as="geometry" />
        </mxCell>
        <mxCell id="xznWHPDb5fXahqg4B3CQ-123" value="Đăng nhập" style="ellipse;whiteSpace=wrap;html=1;" vertex="1" parent="1">
          <mxGeometry x="-1630" y="2450" width="140" height="70" as="geometry" />
        </mxCell>
        <mxCell id="xznWHPDb5fXahqg4B3CQ-124" value="Use" style="endArrow=open;endSize=12;dashed=1;html=1;rounded=0;exitX=0;exitY=0.5;exitDx=0;exitDy=0;entryX=1;entryY=0.5;entryDx=0;entryDy=0;" edge="1" parent="1" source="xznWHPDb5fXahqg4B3CQ-120" target="xznWHPDb5fXahqg4B3CQ-119">
          <mxGeometry width="160" relative="1" as="geometry">
            <mxPoint x="-1650" y="2690" as="sourcePoint" />
            <mxPoint x="-1490" y="2700" as="targetPoint" />
          </mxGeometry>
        </mxCell>
        <mxCell id="xznWHPDb5fXahqg4B3CQ-125" value="Use" style="endArrow=open;endSize=12;dashed=1;html=1;rounded=0;exitX=0;exitY=0.5;exitDx=0;exitDy=0;entryX=1;entryY=0.5;entryDx=0;entryDy=0;" edge="1" parent="1" source="xznWHPDb5fXahqg4B3CQ-121" target="xznWHPDb5fXahqg4B3CQ-119">
          <mxGeometry width="160" relative="1" as="geometry">
            <mxPoint x="-1650" y="2690" as="sourcePoint" />
            <mxPoint x="-1490" y="2700" as="targetPoint" />
          </mxGeometry>
        </mxCell>
        <mxCell id="xznWHPDb5fXahqg4B3CQ-126" value="extend" style="endArrow=open;endSize=12;dashed=1;html=1;rounded=0;exitX=1;exitY=0.5;exitDx=0;exitDy=0;entryX=0;entryY=0.671;entryDx=0;entryDy=0;entryPerimeter=0;" edge="1" parent="1" source="xznWHPDb5fXahqg4B3CQ-121" target="xznWHPDb5fXahqg4B3CQ-122">
          <mxGeometry width="160" relative="1" as="geometry">
            <mxPoint x="-1090" y="2270" as="sourcePoint" />
            <mxPoint x="-1220" y="2345" as="targetPoint" />
          </mxGeometry>
        </mxCell>
        <mxCell id="xznWHPDb5fXahqg4B3CQ-127" value="extend" style="endArrow=open;endSize=12;dashed=1;html=1;rounded=0;exitX=1;exitY=0.5;exitDx=0;exitDy=0;entryX=0;entryY=0.5;entryDx=0;entryDy=0;" edge="1" parent="1" source="xznWHPDb5fXahqg4B3CQ-120" target="xznWHPDb5fXahqg4B3CQ-122">
          <mxGeometry width="160" relative="1" as="geometry">
            <mxPoint x="-1090" y="2270" as="sourcePoint" />
            <mxPoint x="-1220" y="2345" as="targetPoint" />
          </mxGeometry>
        </mxCell>
        <mxCell id="xznWHPDb5fXahqg4B3CQ-129" value="Include" style="endArrow=open;endSize=12;dashed=1;html=1;rounded=0;exitX=0.5;exitY=0;exitDx=0;exitDy=0;entryX=0.5;entryY=1;entryDx=0;entryDy=0;" edge="1" parent="1">
          <mxGeometry x="0.0031" width="160" relative="1" as="geometry">
            <mxPoint x="-1560.34" y="2575" as="sourcePoint" />
            <mxPoint x="-1560.34" y="2520" as="targetPoint" />
            <mxPoint as="offset" />
          </mxGeometry>
        </mxCell>
        <mxCell id="xznWHPDb5fXahqg4B3CQ-130" value="Sinh viên" style="shape=umlActor;verticalLabelPosition=bottom;verticalAlign=top;html=1;" vertex="1" parent="1">
          <mxGeometry x="-1820" y="2830" width="30" height="60" as="geometry" />
        </mxCell>
        <mxCell id="xznWHPDb5fXahqg4B3CQ-131" value="đăng nhập" style="ellipse;whiteSpace=wrap;html=1;" vertex="1" parent="1">
          <mxGeometry x="-1680" y="2720" width="140" height="70" as="geometry" />
        </mxCell>
        <mxCell id="xznWHPDb5fXahqg4B3CQ-132" value="Đổi mật Khẩu&amp;nbsp;" style="ellipse;whiteSpace=wrap;html=1;" vertex="1" parent="1">
          <mxGeometry x="-1680" y="2830" width="140" height="70" as="geometry" />
        </mxCell>
        <mxCell id="xznWHPDb5fXahqg4B3CQ-133" value="Include" style="endArrow=open;endSize=12;dashed=1;html=1;rounded=0;exitX=0.5;exitY=0;exitDx=0;exitDy=0;" edge="1" parent="1" source="xznWHPDb5fXahqg4B3CQ-132" target="xznWHPDb5fXahqg4B3CQ-131">
          <mxGeometry width="160" relative="1" as="geometry">
            <mxPoint x="-1580" y="2950" as="sourcePoint" />
            <mxPoint x="-1420" y="2950" as="targetPoint" />
          </mxGeometry>
        </mxCell>
        <mxCell id="xznWHPDb5fXahqg4B3CQ-134" style="edgeStyle=orthogonalEdgeStyle;rounded=0;orthogonalLoop=1;jettySize=auto;html=1;entryX=0.022;entryY=0.429;entryDx=0;entryDy=0;entryPerimeter=0;" edge="1" parent="1" source="xznWHPDb5fXahqg4B3CQ-130" target="xznWHPDb5fXahqg4B3CQ-132">
          <mxGeometry relative="1" as="geometry" />
        </mxCell>
        <mxCell id="xznWHPDb5fXahqg4B3CQ-135" value="Đổi khi nhớ mật khẩu cũ" style="ellipse;whiteSpace=wrap;html=1;" vertex="1" parent="1">
          <mxGeometry x="-1450" y="2830" width="140" height="70" as="geometry" />
        </mxCell>
        <mxCell id="xznWHPDb5fXahqg4B3CQ-136" value="Đổi khi quên mật khẩu" style="ellipse;whiteSpace=wrap;html=1;" vertex="1" parent="1">
          <mxGeometry x="-1450" y="2930" width="140" height="70" as="geometry" />
        </mxCell>
        <mxCell id="xznWHPDb5fXahqg4B3CQ-137" value="Gửi mã đến gmail" style="ellipse;whiteSpace=wrap;html=1;" vertex="1" parent="1">
          <mxGeometry x="-1260" y="2930" width="140" height="70" as="geometry" />
        </mxCell>
        <mxCell id="xznWHPDb5fXahqg4B3CQ-138" value="Nhập mã xác thực" style="ellipse;whiteSpace=wrap;html=1;" vertex="1" parent="1">
          <mxGeometry x="-1260" y="3070" width="140" height="70" as="geometry" />
        </mxCell>
        <mxCell id="xznWHPDb5fXahqg4B3CQ-139" value="Include" style="endArrow=open;endSize=12;dashed=1;html=1;rounded=0;entryX=0.5;entryY=1;entryDx=0;entryDy=0;exitX=0.5;exitY=0;exitDx=0;exitDy=0;" edge="1" parent="1" source="xznWHPDb5fXahqg4B3CQ-138" target="xznWHPDb5fXahqg4B3CQ-137">
          <mxGeometry width="160" relative="1" as="geometry">
            <mxPoint x="-1480" y="3040" as="sourcePoint" />
            <mxPoint x="-1320" y="3040" as="targetPoint" />
          </mxGeometry>
        </mxCell>
        <mxCell id="xznWHPDb5fXahqg4B3CQ-140" value="include" style="endArrow=open;endSize=12;dashed=1;html=1;rounded=0;exitX=0;exitY=0.5;exitDx=0;exitDy=0;entryX=1;entryY=0.5;entryDx=0;entryDy=0;" edge="1" parent="1" source="xznWHPDb5fXahqg4B3CQ-137" target="xznWHPDb5fXahqg4B3CQ-136">
          <mxGeometry width="160" relative="1" as="geometry">
            <mxPoint x="-1410" y="3080" as="sourcePoint" />
            <mxPoint x="-1250" y="3080" as="targetPoint" />
            <mxPoint as="offset" />
          </mxGeometry>
        </mxCell>
        <mxCell id="xznWHPDb5fXahqg4B3CQ-141" value="extend" style="endArrow=open;endSize=12;dashed=1;html=1;rounded=0;exitX=0;exitY=0.5;exitDx=0;exitDy=0;" edge="1" parent="1" source="xznWHPDb5fXahqg4B3CQ-135" target="xznWHPDb5fXahqg4B3CQ-132">
          <mxGeometry width="160" relative="1" as="geometry">
            <mxPoint x="-1640" y="2980" as="sourcePoint" />
            <mxPoint x="-1480" y="2980" as="targetPoint" />
          </mxGeometry>
        </mxCell>
        <mxCell id="xznWHPDb5fXahqg4B3CQ-142" value="extend" style="endArrow=open;endSize=12;dashed=1;html=1;rounded=0;" edge="1" parent="1" source="xznWHPDb5fXahqg4B3CQ-136">
          <mxGeometry width="160" relative="1" as="geometry">
            <mxPoint x="-1640" y="2980" as="sourcePoint" />
            <mxPoint x="-1540" y="2870" as="targetPoint" />
          </mxGeometry>
        </mxCell>
        <mxCell id="xznWHPDb5fXahqg4B3CQ-143" value="Quên mật khẩu" style="ellipse;whiteSpace=wrap;html=1;" vertex="1" parent="1">
          <mxGeometry x="-1690" y="3175" width="140" height="70" as="geometry" />
        </mxCell>
        <mxCell id="xznWHPDb5fXahqg4B3CQ-144" value="Gửi mã đến gmail" style="ellipse;whiteSpace=wrap;html=1;" vertex="1" parent="1">
          <mxGeometry x="-1240" y="3175" width="140" height="70" as="geometry" />
        </mxCell>
        <mxCell id="xznWHPDb5fXahqg4B3CQ-145" value="Nhập mã xác thực" style="ellipse;whiteSpace=wrap;html=1;" vertex="1" parent="1">
          <mxGeometry x="-1020" y="3175" width="140" height="70" as="geometry" />
        </mxCell>
        <mxCell id="xznWHPDb5fXahqg4B3CQ-146" value="Include" style="endArrow=open;endSize=12;dashed=1;html=1;rounded=0;entryX=1;entryY=0.5;entryDx=0;entryDy=0;exitX=0;exitY=0.5;exitDx=0;exitDy=0;" edge="1" parent="1" source="xznWHPDb5fXahqg4B3CQ-144" target="xznWHPDb5fXahqg4B3CQ-148">
          <mxGeometry width="160" relative="1" as="geometry">
            <mxPoint x="-780" y="3205" as="sourcePoint" />
            <mxPoint x="-1130" y="3215" as="targetPoint" />
          </mxGeometry>
        </mxCell>
        <mxCell id="xznWHPDb5fXahqg4B3CQ-147" value="include" style="endArrow=open;endSize=12;dashed=1;html=1;rounded=0;exitX=0;exitY=0.5;exitDx=0;exitDy=0;entryX=1;entryY=0.5;entryDx=0;entryDy=0;" edge="1" parent="1" source="xznWHPDb5fXahqg4B3CQ-148" target="xznWHPDb5fXahqg4B3CQ-143">
          <mxGeometry width="160" relative="1" as="geometry">
            <mxPoint x="-1420" y="3430" as="sourcePoint" />
            <mxPoint x="-1260" y="3430" as="targetPoint" />
            <mxPoint as="offset" />
          </mxGeometry>
        </mxCell>
        <mxCell id="xznWHPDb5fXahqg4B3CQ-148" value="Nhập gmail" style="ellipse;whiteSpace=wrap;html=1;" vertex="1" parent="1">
          <mxGeometry x="-1450" y="3175" width="140" height="70" as="geometry" />
        </mxCell>
        <mxCell id="xznWHPDb5fXahqg4B3CQ-149" value="Include" style="endArrow=open;endSize=12;dashed=1;html=1;rounded=0;exitX=0;exitY=0.5;exitDx=0;exitDy=0;" edge="1" parent="1" source="xznWHPDb5fXahqg4B3CQ-145">
          <mxGeometry width="160" relative="1" as="geometry">
            <mxPoint x="-1230" y="3220" as="sourcePoint" />
            <mxPoint x="-1100" y="3210" as="targetPoint" />
          </mxGeometry>
        </mxCell>
        <mxCell id="xznWHPDb5fXahqg4B3CQ-150" value="Đổi mật khẩu mới" style="ellipse;whiteSpace=wrap;html=1;" vertex="1" parent="1">
          <mxGeometry x="-1020" y="3290" width="140" height="70" as="geometry" />
        </mxCell>
        <mxCell id="xznWHPDb5fXahqg4B3CQ-151" value="Include" style="endArrow=open;endSize=12;dashed=1;html=1;rounded=0;exitX=0.5;exitY=0;exitDx=0;exitDy=0;entryX=0.5;entryY=1;entryDx=0;entryDy=0;" edge="1" parent="1" source="xznWHPDb5fXahqg4B3CQ-150" target="xznWHPDb5fXahqg4B3CQ-145">
          <mxGeometry width="160" relative="1" as="geometry">
            <mxPoint x="-1010" y="3220" as="sourcePoint" />
            <mxPoint x="-1090" y="3220" as="targetPoint" />
          </mxGeometry>
        </mxCell>
        <mxCell id="xznWHPDb5fXahqg4B3CQ-152" value="Đổi mật khẩu mới" style="ellipse;whiteSpace=wrap;html=1;" vertex="1" parent="1">
          <mxGeometry x="-1050" y="3060" width="140" height="70" as="geometry" />
        </mxCell>
        <mxCell id="xznWHPDb5fXahqg4B3CQ-153" value="Include" style="endArrow=open;endSize=12;dashed=1;html=1;rounded=0;entryX=1;entryY=0.5;entryDx=0;entryDy=0;exitX=0.033;exitY=0.635;exitDx=0;exitDy=0;exitPerimeter=0;" edge="1" parent="1" source="xznWHPDb5fXahqg4B3CQ-152" target="xznWHPDb5fXahqg4B3CQ-138">
          <mxGeometry width="160" relative="1" as="geometry">
            <mxPoint x="-1480" y="3040" as="sourcePoint" />
            <mxPoint x="-1320" y="3040" as="targetPoint" />
          </mxGeometry>
        </mxCell>
        <mxCell id="xznWHPDb5fXahqg4B3CQ-154" style="edgeStyle=orthogonalEdgeStyle;rounded=0;orthogonalLoop=1;jettySize=auto;html=1;entryX=-0.004;entryY=0.643;entryDx=0;entryDy=0;entryPerimeter=0;" edge="1" parent="1" source="xznWHPDb5fXahqg4B3CQ-130" target="xznWHPDb5fXahqg4B3CQ-143">
          <mxGeometry relative="1" as="geometry" />
        </mxCell>
      </root>
    </mxGraphModel>
  </diagram>
</mxfile>
